<svg xmlns="http://www.w3.org/2000/svg" viewBox="0 0 100 125"><path d="M87.628 25.346C81.043 15.295 70.937 8.41 59.174 5.96a45.233 45.233 0 0 0-9.218-.954c-21.169 0-39.672 15.065-43.995 35.82-2.451 11.764-.173 23.777 6.412 33.828 6.585 10.051 16.69 16.936 28.454 19.386 3.039.634 6.141.954 9.218.954 21.169 0 39.672-15.065 43.995-35.82 2.451-11.764.173-23.777-6.412-33.828zm3.57 33.236c-4.045 19.417-21.353 33.509-41.154 33.509-2.879 0-5.782-.3-8.627-.893C30.413 88.906 20.96 82.465 14.8 73.063c-6.16-9.402-8.291-20.641-5.998-31.645C12.846 22.001 30.154 7.909 49.956 7.909c2.879 0 5.782.3 8.627.893C69.587 11.094 79.04 17.534 85.2 26.937c6.16 9.402 8.291 20.641 5.998 31.645z"/><path d="M40.433 50.049l.799 6.824a3.881 3.881 0 0 1-3.394 4.294 3.881 3.881 0 0 1-4.294-3.394l-.799-6.824a3.881 3.881 0 0 1 3.394-4.294 3.883 3.883 0 0 1 4.294 3.394z"/><path d="M37.368 35.106l2.02 6.567a3.882 3.882 0 0 1-2.561 4.837 3.882 3.882 0 0 1-4.837-2.561l-2.02-6.567a3.882 3.882 0 0 1 2.561-4.837 3.882 3.882 0 0 1 4.837 2.561zM21.615 48.955l-.162 6.869a3.881 3.881 0 0 1-3.96 3.778 3.881 3.881 0 0 1-3.778-3.96l.162-6.869a3.881 3.881 0 0 1 3.96-3.778 3.88 3.88 0 0 1 3.778 3.96z"/><path d="M37.071 21.941l-.432 6.857a3.882 3.882 0 0 1-4.106 3.62 3.882 3.882 0 0 1-3.62-4.106l.432-6.857a3.882 3.882 0 0 1 4.106-3.62 3.882 3.882 0 0 1 3.62 4.106zm28.782 23.042l2.643-6.342a3.882 3.882 0 0 1 5.061-2.084 3.882 3.882 0 0 1 2.084 5.061l-2.643 6.342a3.882 3.882 0 0 1-5.061 2.084 3.88 3.88 0 0 1-2.084-5.061zm14.899 5.268l-.348-6.862a3.881 3.881 0 0 1 3.67-4.061 3.881 3.881 0 0 1 4.061 3.67l.348 6.862a3.881 3.881 0 0 1-3.67 4.061 3.882 3.882 0 0 1-4.061-3.67z"/><path d="M61.212 59.514l1.452-6.715a3.882 3.882 0 0 1 4.601-2.965 3.882 3.882 0 0 1 2.965 4.601l-1.452 6.715a3.882 3.882 0 0 1-4.601 2.965 3.881 3.881 0 0 1-2.965-4.601zM58.176 74.12l1.182-6.768a3.882 3.882 0 0 1 4.479-3.147 3.882 3.882 0 0 1 3.147 4.479l-1.182 6.768a3.882 3.882 0 0 1-4.479 3.147 3.882 3.882 0 0 1-3.147-4.479zm1.979-39.942l-2.278 6.482a3.882 3.882 0 0 1-4.935 2.368 3.882 3.882 0 0 1-2.368-4.935l2.278-6.482a3.882 3.882 0 0 1 4.935-2.368 3.882 3.882 0 0 1 2.368 4.935z"/><path d="M61.333 18.133l.605 6.844a3.881 3.881 0 0 1-3.514 4.196 3.881 3.881 0 0 1-4.196-3.514l-.605-6.844a3.881 3.881 0 0 1 3.514-4.196 3.881 3.881 0 0 1 4.196 3.514zm-20.678 52.17l1.946-6.589a3.882 3.882 0 0 1 4.808-2.616 3.882 3.882 0 0 1 2.616 4.808l-1.946 6.589a3.882 3.882 0 0 1-4.808 2.616 3.881 3.881 0 0 1-2.616-4.808z"/><path d="M40.294 86.388l-.952-6.804a3.881 3.881 0 0 1 3.297-4.369 3.881 3.881 0 0 1 4.369 3.297l.952 6.804a3.881 3.881 0 0 1-3.297 4.369 3.883 3.883 0 0 1-4.369-3.297z"/><circle cx="73.643" cy="22.548" r="2.295"/><circle cx="79.26" cy="62.926" r="3.322"/><circle cx="53.588" cy="54.637" r="2.338"/><circle cx="24.131" cy="67.775" r="3.627"/><circle cx="20.245" cy="34.752" r="2.105"/><circle cx="44.52" cy="15.879" r="4.374"/><circle cx="54.021" cy="82.431" r="1.435"/><circle cx="72.677" cy="79.839" r="2.592"/><circle cx="31.396" cy="78.843" r="1.597"/><circle cx="44.04" cy="31.97" r="2.782"/><text y="115" font-size="5" font-weight="bold" font-family="'Helvetica Neue', Helvetica, Arial-Unicode, Arial, Sans-serif">Created by Maxim Kulikov</text><text y="120" font-size="5" font-weight="bold" font-family="'Helvetica Neue', Helvetica, Arial-Unicode, Arial, Sans-serif">from the Noun Project</text></svg>