<svg xmlns="http://www.w3.org/2000/svg" xmlns:xlink="http://www.w3.org/1999/xlink" viewBox="0 0 100 110"><path d="M0 61.2h33.3c20.9 0 25.7 8.8 30.5 13.7 7.7-9.2 13.5-13.7 23.6-13.7H100v-2.1H0v2.1z" fill="#f9dc5c"/><path d="M94.4 65.1h-7.1c-9.6 0-15.1 4.4-22.4 13.2l-1.1 1.3-1.2-1.2c-.7-.7-1.3-1.4-2-2.2-4.5-4.9-10-11.1-27.4-11.1H5.6c-3.2.5-5.6 3.2-5.6 6.5v6.5c0 3.6 2.9 6.5 6.5 6.5h86.9c3.6 0 6.5-2.9 6.5-6.5v-6.5c.1-3.3-2.3-6-5.5-6.5z" fill="#693d3d"/><path d="M3.3 87.9v1c0 5.5 2.2 10.4 5.8 14 3.6 3.6 13.7 7.1 40.9 7.1 32.3 0 37.3-3.5 40.9-7.1 3.6-3.6 5.8-8.6 5.8-14v-1H3.3zM49 25.8c-16.7 0-46 4.6-46 29.9h92c.1-21-25.7-29.9-46-29.9zm-32.7 26c-1.3.1-2.7-.4-3.6-1.6-.9-1.2-1.1-2.7-.7-3.9 1.3-.1 2.7.4 3.6 1.6.9 1.2 1.1 2.7.7 3.9zm4.1-9.6c-1.2.5-2.7.3-3.9-.6-1.2-.9-1.7-2.3-1.6-3.6 1.2-.5 2.7-.3 3.9.6 1.2.9 1.7 2.3 1.6 3.6zm8.1 3.5c-.2 1.5-1.2 2.6-2.4 3.1-1-.9-1.5-2.3-1.3-3.7.2-1.5 1.2-2.6 2.4-3.1 1 .9 1.6 2.3 1.3 3.7zm.4-9.3c-.9 1.2-2.3 1.8-3.6 1.7-.5-1.2-.3-2.7.6-3.9.9-1.2 2.3-1.8 3.6-1.7.5 1.2.3 2.7-.6 3.9zm7.6 14.2c-1.2.8-2.7.9-3.9.4 0-1.3.6-2.7 1.8-3.5 1.2-.8 2.7-.9 3.9-.4.1 1.4-.5 2.7-1.8 3.5zm2.6-6.3c-1.3.1-2.7-.4-3.6-1.6-.9-1.2-1.1-2.7-.7-3.9 1.3-.1 2.7.4 3.6 1.6 1 1.2 1.2 2.7.7 3.9zm-.5-10.8c-1.4-.6-2.2-1.8-2.4-3.1 1.1-.7 2.6-.9 3.9-.3 1.4.6 2.2 1.8 2.4 3.1-1.1.8-2.6.9-3.9.3zm7.5 17.3c-1.4-.6-2.2-1.8-2.4-3.1 1.1-.7 2.6-.9 3.9-.3 1.4.6 2.2 1.8 2.4 3.1-1.1.8-2.6.9-3.9.3zm3.1-10.1c-1.2.9-2.7 1-3.9.5-.1-1.3.5-2.7 1.7-3.6 1.2-.9 2.7-1 3.9-.5.1 1.4-.5 2.8-1.7 3.6zm1.7-10.6c1.2-.6 2.7-.6 4 .1 1.3.7 2 2 2.1 3.4-1.2.6-2.7.6-4-.1-1.3-.8-2-2.1-2.1-3.4zm5.8 20.1c-1.3-.4-2.3-1.5-2.7-2.9-.4-1.4 0-2.9 1-3.8 1.3.4 2.3 1.5 2.7 2.9.4 1.4 0 2.8-1 3.8zm8.5-18.1c1.4-.4 2.9 0 3.9.9-.4 1.3-1.4 2.3-2.9 2.7-1.4.4-2.9 0-3.9-.9.4-1.3 1.5-2.3 2.9-2.7zm1.6 11.5c-1.2.8-2.7.9-3.9.4 0-1.3.6-2.7 1.8-3.5 1.2-.8 2.7-.9 3.9-.4 0 1.3-.6 2.6-1.8 3.5zm4.2 7.2c-1.4-.6-2.2-1.8-2.4-3.1 1.1-.7 2.6-.9 3.9-.3 1.4.6 2.2 1.8 2.4 3.1-1.1.8-2.5.9-3.9.3zm6.6-11.3c-.3 1.5-1.2 2.6-2.5 3.1-1-.9-1.5-2.3-1.2-3.8.3-1.5 1.2-2.6 2.5-3.1.9 1 1.5 2.4 1.2 3.8zm9.1 9.7c-.2 1.5-1.2 2.6-2.4 3.1-1-.9-1.5-2.3-1.3-3.7.2-1.5 1.2-2.6 2.4-3.1 1 .8 1.5 2.2 1.3 3.7z" fill="#f6af69"/><image width="900" height="600" xlink:href="AB4599B4.jpg" transform="translate(-933 -297)" overflow="visible"/></svg>