<svg xmlns="http://www.w3.org/2000/svg" viewBox="0 0 352 149.3"><path d="M168.9 111.9c4 1 7.9 1.9 11.5 2.8-1.3.7-2.6 1.6-3.8 3-.6.6-1.2 1.4-1.9 2.2-5.1 6-12.7 15-25.9 12.9-18.3-2.8-53.5-19.4-52.9-25 .3-2.7 1.9-3.5 5.1-4.7 2.8-1.1 6.2-2.5 8-6.3 3.7.9 7.4 1.9 11.2 2.8l-7 5.8c-.9.7-1 2-.3 2.8.4.5 1 .7 1.6.7.5 0 .9-.2 1.3-.5l9.1-7.5.1-.1c.7.2 1.5.4 2.2.6 2.7.7 5.5 1.4 8.3 2.1l-9.8 7.3c-.9.7-1.1 1.9-.4 2.8.4.5 1 .8 1.6.8.4 0 .8-.1 1.2-.4l10.9-8.2c.4-.3.7-.8.8-1.3 3.4.9 6.8 1.7 10.2 2.6l-10.6 8.6c-.9.7-1 2-.3 2.8.4.5 1 .7 1.6.7.4 0 .9-.1 1.3-.5l12.8-10.4c.1 0 .1-.1.1-.1 3.1.8 6.2 1.6 9.3 2.3l-12 10.1c-.9.7-1 2-.2 2.8.4.5 1 .7 1.5.7s.9-.2 1.3-.5l14.1-11.7zm39.2 27.7c-.3.2-.6.2-1 .2-.7 0-1.4-.4-1.8-1.1-.5-1-.2-2.2.8-2.7.4-.2 8.6-4.9 9.7-14.8-.6-.1-1.2-.1-1.7-.2-1.8 2-6.8 7.1-12.2 9.1-1.5.6-3 1-4.3 1.4-5 1.5-6.6 2.2-6.6 5 0 2.4 4.5 11.9 17.2 11.9 11.3 0 14.5-19 15-26.6-1.1-.1-2.1-.1-3.2-.2-1.3 12.1-11.4 17.7-11.9 18zM15.8 85.8l25-4.2h.4c.4-2.2 1.5-4.1 2.5-5.8l-21.1-2.1c-1.1-.1-1.9-1.1-1.8-2.2.1-1.1 1.2-1.9 2.2-1.8L45.4 72c-.1-.9-.4-2-.8-3.2-.5-1.4-1-3-1.2-4.7l-23.7-7.3c-1.1-.3-1.7-1.5-1.3-2.5.3-1.1 1.5-1.7 2.5-1.3l22.9 7.1c.7-2.1 1.9-4.2 2.9-5.7C33.3 49.2 18 43.6 5.9 42.5 2.4 49.6 5.2 58.3 7 64.1c.9 2.7 1.5 4.6 1.5 6.1 0 1.9-1.2 4.1-2.8 7.1C2.8 82.6-1.1 89.8.4 97.8c9.4 1.9 27.5-2.3 42.6-6.5-.7-1.4-1.5-3.4-1.9-5.5l-24.8 4.1H16c-1 0-1.8-.7-2-1.7 0-1.2.7-2.2 1.8-2.4zm106.8-35.2c8.1-1.7 16.8-3.5 25.8-5.2-2.6-.4-5.3-.8-8.1-1.4-2.3-.5-5.2-1.3-8.3-2.1-6.3-1.8-17-4.7-19.8-3.1-.5 1.3.7 2.3 3.7 4.3 2.6 1.7 6 4 6.7 7.5zm134-8.8c2.5.4 4.9.9 7.3 1.4-4.5-4-10.3-10.2-14.5-16.6-7.9-12-22.2-26.3-30.1-26.3h-.2c-2 0-2.6 1.7-2.8 2-1.4 1.7-.8 6.2-.4 9.5 1.4.2 24.1 5.2 40.7 30z"/><path d="M247.8 40.5c1.1.2 2.2.3 3.3.5-13.4-18.1-30.2-23.5-34.8-24.7 0 .8.1 1.6 0 2.3-.7 4.9.1 8.6 6.4 10.1 3.6.8 21.2 5.2 25.1 11.8zm-11.3 45.3c-.1 0-.2.1-.2.4-.6 4.5 2.1 9.1 4.8 11.9 2.7 2.8 5.8 4.4 8 4.2 4.1-.4 11.1-2.9 15-4.4-10.4-6.5-22.1-12.3-26.5-12.3-.5 0-.9.1-1.1.2zm96.8 13.1c2.5 17.6-5.5 33.6-11.9 35.4 0 0-1.9.7-1.5 2.6.4 1.8 2.6 1.3 2.6 1.3 8.9-2.5 17.4-20.8 14.7-39.9l-3.9.6z"/><path d="M347.6 105.8c-1.7-4.1-2.5-8.4-2.8-10.4 1.8-1 3.3-2.1 4.3-3.6-1.4-.9-4.3-2.2-7-3.3-1.3 1-2.4 2.4-3.1 4.3-.7 1.7-1.2 3.5-1.7 5.4 1.2-.3 2.5-.7 3.6-1.1.4 2.4 1.3 6.4 2.9 10.2l.2.5c2.1 5.2 3.9 11.1-2.5 14.8-1 .6-1.3 1.8-.7 2.8.4.6 1.1 1 1.7 1 .3 0 .7-.1 1-.3 10-5.8 5.8-16 4.3-19.8l-.2-.5z"/><path d="M341.9 75.6c7.8-5 9.4-13.5 9.5-14 .2-1.1-.5-2.1-1.6-2.3-1.1-.2-2.1.5-2.3 1.6-.1.4-1.8 8.9-10.1 12.5-.8-.3-1.5-.7-2-.9h-.1c7.9-4.9 8-15.2 8-15.7 0-1.1-.9-1.8-2-1.8s-2 .7-2 1.8c0 .4-.1 10.7-8.4 13.5-.1 0-.2.1-.3.1-.5-.2-.9-.5-1.2-.7-5.8-3.6-56.9-27.3-111.7-27.3-40.1 0-87.1 10.7-115.2 17.1-13 3-21.6 4.9-25.1 4.9-5.1 0-14.2-3.6-25.8-8.2-.3-.1-.7-.3-1.1-.4-1.5 2.1-3.2 5.1-3.2 6.8 0 1.6.6 3.3 1.1 4.9.6 1.7 1.1 3.4 1.1 5 0 1.8-1 3.5-2.1 5.2-1.1 1.9-2.3 3.8-2.3 5.8 0 2.6 1.2 5.2 2 6.7 2-.6 3.9-.9 5.7-1.4 9-2.6 15.5-4.2 18.3-4.1 9.6.4 37.2 8.4 37.2 8.4 6 1.5 12.7 2.5 20 4.4 26 6.6 55.5 14.1 71.8 17.4 8.1 1.6 16.8 2.6 25.3 3.1h.1c27.3 1.6 53.9-1.6 62-3.8 2.1-.6 4.4-1.4 6.7-2.3-5.4-4.9-17.1-16.4-17.1-24.3 0-10.4 12.7-14.4 13.3-14.5 1.1-.3 2.2.3 2.5 1.3.3 1.1-.3 2.2-1.3 2.5-.1 0-10.4 3.2-10.4 10.7 0 6.3 11.6 17.8 17.2 22.6 3.5-1.5 7-3.2 10.2-4.6 6-2.8 9.4-4.4 11.5-4.8.7-.1 2-.3 3.6-.4 2.4-.2 5.9-.6 9.6-1.2.6-2.6 1.3-5.2 2.2-7.7 2.5-6.6 8.3-8.5 12.1-9.8.9-.3 2.2-.7 2.8-1.1-1.3-1.3-4.9-3.2-8.5-5zm-195.9-8s-55.5 6.9-62.9 6.9h-.5c-1.1 0-2-.9-2-2s.9-1.9 2-1.9h.5c7.1 0 62.3-7.4 62.3-7.4 56.6-8.6 103.9 2.2 104.4 2.3 1.1.3 1.8 1.3 1.5 2.4-.3 1.1-1.3 2-2.4 1.7-.6-.1-47.1-10.5-102.9-2zm122.5 32.8c-.5.2-12.5 5.2-19.1 5.8h-.7c-3.3 0-7.2-2-10.5-5.5-4.3-4.5-6.5-10.2-5.9-15.2.2-1.6 1.1-2.9 2.5-3.5 6.8-3.1 27.8 9.9 34.1 14 .7.5 1 1.3.9 2 .1 1.1-.4 2.1-1.3 2.4zm54.8-24.3c-1.9 0-3.5 1.6-3.5 3.5 0 1.4.9 2.6 2.1 3.2-.6.2-1.2.3-1.9.3-3 0-5.4-2.1-5.4-4.7s2.4-4.7 5.4-4.7c2.3 0 4.3 1.3 5 3-.4-.3-1-.6-1.7-.6z"/></svg>