<svg xmlns="http://www.w3.org/2000/svg" viewBox="0 0 100 110"><path d="M72.8 22.7c.1 2.3.2 7.6.2 14-1.6.2-2.6 1-3.5 1.6-.9.7-1.8 1.3-3.5 1.3s-2.5-.6-3.5-1.3c-1.1-.8-2.3-1.7-4.6-1.7s-3.5.9-4.6 1.7c-.9.7-1.8 1.3-3.5 1.3s-2.5-.6-3.5-1.3c-1.1-.8-2.3-1.7-4.6-1.7s-3.5.9-4.6 1.7c-.9.7-1.8 1.3-3.5 1.3s-2.5-.6-3.5-1.3c-.9-.7-1.9-1.4-3.5-1.6 0-6.5.2-11.7.2-14h46z" fill="#f9f0db"/><path d="M70.8 62.8c-.8 2.9-1.6 5.6-2.5 8.2-2 6.1-3.9 11.9-3.9 20.2v7.3H35.6v-7.3c0-8.3-1.9-14.1-3.9-20.2-.8-2.6-1.7-5.2-2.5-8.2-1.8-6.8-2.2-17.9-2.3-27 1 .2 1.6.5 2.4 1 1.1.6 2.3 1.4 4.6 1.4s3.5-.7 4.6-1.4c.9-.6 1.8-1.1 3.5-1.1s2.5.5 3.5 1.1c1.1.6 2.3 1.4 4.6 1.4s3.5-.7 4.6-1.4c.9-.6 1.8-1.1 3.5-1.1s2.5.5 3.5 1.1c1.1.6 2.3 1.4 4.6 1.4s3.5-.7 4.6-1.4c.7-.4 1.3-.8 2.4-1-.3 9-.7 20.2-2.5 27z" fill="#f9dc5c"/><path fill="#693d3d" d="M35.6 101.2h28.8v8.8H35.6z"/></svg>