<svg id="Laag_1" xmlns="http://www.w3.org/2000/svg" xmlns:xlink="http://www.w3.org/1999/xlink" viewBox="0 0 1431.1 729"><style>.st0{font-family:&apos;TisaOT-Medi&apos;}.st2{opacity:.5}.st3{fill:#854d27}.st7{fill:#333;stroke:#fff;stroke-width:5}.st8{fill:#fff;stroke:#333;stroke-width:5.9687;stroke-miterlimit:10}.st10{font-size:24px}.st11{font-size:14px}.st12{font-family:&apos;TisaOT-Bold&apos;}.st13{fill:#29abe2}.st14{fill:none;stroke:#333;stroke-width:5;stroke-linecap:round;stroke-miterlimit:10}.st15,.st16{fill:#44af69}.st16{opacity:.6;enable-background:new}.st17{fill:none;stroke:#333;stroke-width:5.9687;stroke-miterlimit:10}.st19{enable-background:new}.st22{stroke-width:2;fill:none;stroke:#000;stroke-miterlimit:10}.st26{font-size:21px}</style><text transform="translate(285.6 89.05)" class="st0" font-size="50">De Aquaponics</text><g id="Laag_1_2_"><g id="Laag_1_1_"><g id="dirt" class="st2"><path class="st3" d="M1218.2 411.5c-3.7-2.9-40.2-10.2-47.1-9.7-12.7.8-15.9 14.3-29.5 18.1-12.4 3.5-15.5-6.1-32-6.6-24.7-.7-31.2 20.5-51.7 17.6-14.2-2-13.7-12.6-31.3-16.6-17.4-4-22.2 5.4-40 3.2-23.4-2.8-25.8-23-44-22.7-13.2.2-17.5 10.4-37.4 22.5-17.9 10.9-23 10.2-36.2 12.3 33.7 28.3 70.1 52.4 119.6 81.6 72.8 42.9 155.1 80.5 225.9 84.9l3.7-184.6z"/></g><g id="dirt_1_" class="st2"><path class="st3" d="M1218.2 408.7c-2.8 3.9-37.9 7.6-44.4 9.3-13.5 3.4-20.3-10.2-32.8-7.8-14 2.7-14.4 21.7-31 24.7-4.4.8-8.1 0-15.5-1.6-14.3-3.1-19-8.2-28-11.5-19.2-7.1-25 5.7-48 1-13-2.7-15.4-7.6-23.5-11.8 0 0-4.2-2.1-10.5-3.7-14.1-3.5-27.2 7.3-43.9 10-21.8 3.6-26.9-10.5-47-7.5-9.7 1.4-13.1-3.9-27.4 14.3 33.1 29 71 57.2 122.2 87.1 73.2 42.7 156.8 77.8 225.9 80.6l3.9-183.1z"/></g><g id="water"><defs><path id="SVGID_1_" d="M719.7 315.3c-118.2-2.6-329.4 2.8-489.7 5.3-11.1 7.8-16.4 62.2-13.9 69.3.4 14.8-1.4 26.9 1.3 37.3 31.3 106.1 89.5 147 111 158C413 628.6 568.3 605 816.8 396.9l-97.1-81.6z"/></defs><clipPath id="SVGID_2_"><use xlink:href="#SVGID_1_" overflow="visible"/></clipPath><path d="M894.5 389.9c77 5.8 90.6 46.2 156.1 38.5 34.5-4 47.3-6.7 83.9-24.7 17.1-8.4 39.5-16.6 64.9-19.8 12.8-2.8 24.2-2.8 34.9-2 17.8 1.3 32.5 5.4 45.3 10.7 10.9 4 21.8 9.3 32.8 16.1 1.1.7 2.3 2.2 3.4 3.4l3.3 2.1c.3-.1.6-.2.8-.4l-.6.6c22.1 13.6 42.8 28.3 75.4 24.5 34.5-4 43-25.1 79.6-43.1 40.1-19.7 108.9-38.1 177.9 5 2.5 1.6 5.3 7.1 7.6 5l48.4 211.5-1602.5 6.4v-173c47.9-41.9 79.7-45 107-42.9 77 5.8 90.4 43.9 155.9 36.2 34.5-4 47.4-4.4 84.1-22.4 17.1-8.4 39.5-16.6 64.9-19.8 12.8-2.8 24.2-2.8 34.9-2 17.8 1.3 32.5 5.4 45.3 10.7 10.9 4 21.8 9.3 32.8 16.1 1.1.7 2.3 2.2 3.4 3.4l3.3 2.1c.3-.1.6-.2.8-.4l-.6.6c22.1 13.6 46.5 10.5 79 6.7 34.5-4 39.4-7.3 76-25.3 8.7-7 27.1-20 54-24.8 20.7-3.9 37.8-1.4 48 1z" clip-path="url(#SVGID_2_)" fill="#29abe2"/></g><g id="infinity"><path id="motionPath_1_" d="M808.3 380.7c-790.4-684.5-792.5 733.5 11.2 13.7 165.5-148.2 297.1-205.6 395-209.3V596S1046 581 838.8 404.7" fill="none" stroke="#333" stroke-width="15"/><circle id="circlePath" cx="744.7" cy="333.4" r="25" fill="#f7931e" stroke="#fff" stroke-width="5" stroke-miterlimit="10"/></g><g id="info"><circle id="infoFeeding" class="st7" cx="594.2" cy="235" r="35"/><circle id="infoFish" class="st7" cx="220.5" cy="335" r="35"/><circle id="infoAmmonia" class="st7" cx="401.2" cy="604" r="35"/><circle id="infoWorms" class="st7" cx="708.2" cy="480" r="35"/><ellipse id="infoBacteria" transform="rotate(-62.348 993.196 264.963)" class="st7" cx="993.2" cy="265" rx="35" ry="35"/><circle id="infoPlantGrowth" class="st7" cx="1214.5" cy="394.5" r="35"/><circle id="infoFishFood" class="st7" cx="1019.5" cy="534" r="35"/></g><g id="infoBox"><path id="infoBox_1_" class="st8" d="M400.1 171.5h174.7l19.4 12.4 18.3-12.4h175.7V14.7H400.1z"/><text transform="translate(456.84 126.95)" class="st0" font-size="98.641">30</text><text transform="translate(629.2 91.4)" class="st0 st10">meervallen</text><text transform="translate(629.2 120.2)" class="st0 st10">in het water</text><text transform="translate(448.84 55.85)" class="st0 st10">Op dit moment</text><path id="infoBox1_1_" class="st8" d="M26.4 272.1h174.8l19.3 12.4 18.3-12.4h175.8V115.4H26.4z"/><text transform="translate(45.692 147.968)" class="st0 st10">De vissen scheiden ammonia uit</text><text transform="translate(255.5 192.052)" class="st0 st11">Er zit</text><text transform="translate(255.5 208.852)" class="st12 st11">boven gemiddeld</text><text transform="translate(255.5 225.652)" class="st0 st11">ammonia in het water</text><path d="M135 213c1.9.5 3.7.9 5.4 1.3-.6.3-1.2.8-1.8 1.4-.3.3-.6.6-.9 1-2.4 2.8-5.9 7-12.1 6.1-8.6-1.3-25-9.1-24.8-11.7.1-1.3.9-1.6 2.4-2.2 1.3-.5 2.9-1.1 3.7-2.9 1.7.4 3.5.9 5.2 1.3l-3.3 2.7c-.4.3-.5.9-.1 1.3.2.2.5.3.7.3s.4-.1.6-.2l4.3-3.5.1-.1c.3.1.7.2 1 .3 1.3.3 2.6.7 3.9 1l-4.6 3.4c-.4.3-.5.9-.2 1.3.2.2.5.4.8.4.2 0 .4-.1.6-.2l5.1-3.8c.2-.1.3-.4.4-.6l4.8 1.2-5 4c-.4.3-.5.9-.1 1.3.2.2.5.3.7.3s.4-.1.6-.2l6-4.9.1-.1c1.5.4 2.9.7 4.3 1.1l-5.6 4.7c-.4.3-.4.9-.1 1.3.2.2.5.3.7.3s.4-.1.6-.2l6.6-5.4zm18.3 13c-.1.1-.3.1-.4.1-.3 0-.7-.2-.8-.5-.2-.5-.1-1 .4-1.3.2-.1 4-2.3 4.6-6.9-.3 0-.5-.1-.8-.1-.8.9-3.2 3.3-5.7 4.3-.7.3-1.4.5-2 .7-2.3.7-3.1 1-3.1 2.3 0 1.1 2.1 5.6 8 5.6 5.3 0 6.8-8.9 7-12.5-.5 0-1-.1-1.5-.1-.7 5.6-5.5 8.2-5.7 8.4zm-90-25.2l11.7-1.9h.2c.2-1 .7-1.9 1.2-2.7l-9.9-1c-.5-.1-.9-.5-.8-1 0-.5.5-.9 1-.8l10.4 1.1c0-.4-.2-.9-.4-1.5-.2-.7-.5-1.4-.6-2.2L65 187.4c-.5-.2-.8-.7-.6-1.2.2-.5.7-.8 1.2-.6l10.7 3.3c.3-1 .9-2 1.4-2.7-6.2-2.4-13.4-5-19-5.6-1.7 3.3-.4 7.4.5 10.1.4 1.2.7 2.1.7 2.8 0 .9-.6 1.9-1.3 3.3-1.3 2.5-3.2 5.8-2.5 9.6 4.4.9 12.8-1.1 19.9-3-.3-.7-.7-1.6-.9-2.6l-11.6 1.9h-.2c-.5 0-.9-.3-.9-.8.1-.5.4-1 .9-1.1zm50-16.5c3.8-.8 7.8-1.6 12.1-2.4-1.2-.2-2.5-.4-3.8-.6-1.1-.2-2.4-.6-3.9-1-3-.8-7.9-2.2-9.2-1.5-.2.6.3 1.1 1.7 2 1.2.8 2.8 1.9 3.1 3.5zm62.7-4.1c1.2.2 2.3.4 3.4.6-2.1-1.9-4.8-4.8-6.8-7.8-3.7-5.6-10.4-12.3-14.1-12.3h-.1c-.9 0-1.2.8-1.3.9-.7.8-.4 2.9-.2 4.4.7.3 11.3 2.6 19.1 14.2z"/><path d="M171.9 179.6c.5.1 1 .1 1.5.2-6.3-8.4-14.1-11-16.3-11.6v1.1c-.3 2.3 0 4 3 4.7 1.7.5 10 2.5 11.8 5.6zm-5.3 21.2s-.1 0-.1.2c-.3 2.1 1 4.2 2.2 5.5s2.7 2.1 3.7 2c1.9-.2 5.2-1.3 7-2-4.8-3-10.3-5.7-12.4-5.7-.1-.1-.3 0-.4 0zm45.3 6.1c1.2 8.2-2.6 15.7-5.5 16.6 0 0-.9.3-.7 1.2.2.8 1.2.6 1.2.6 4.1-1.2 8.1-9.8 6.9-18.6l-1.9.2z"/><path d="M218.6 210.1c-.8-1.9-1.2-4-1.3-4.9.8-.5 1.5-1 2-1.7-.7-.4-2-1-3.3-1.6-.6.5-1.1 1.1-1.5 2-.3.8-.6 1.7-.8 2.5.6-.1 1.1-.3 1.7-.5.2 1.1.6 3 1.3 4.8l.1.2c1 2.4 1.8 5.2-1.2 6.9-.4.3-.6.8-.3 1.3.2.3.5.5.8.5.2 0 .3 0 .5-.1 4.7-2.7 2.7-7.5 2-9.4z"/><path d="M215.9 196c3.7-2.3 4.4-6.3 4.5-6.5.1-.5-.2-1-.8-1.1-.5-.1-1 .2-1.1.8 0 .2-.8 4.2-4.7 5.9-.4-.2-.7-.3-.9-.4 3.7-2.3 3.8-7.1 3.8-7.4 0-.5-.4-.8-.9-.8s-.9.3-.9.8c0 .2-.1 5-3.9 6.3h-.1c-.2-.1-.4-.2-.5-.3-2.7-1.7-26.6-12.8-52.3-12.8-18.8 0-40.8 5-53.9 8-6.1 1.4-10.1 2.3-11.8 2.3-2.4 0-6.7-1.7-12.1-3.8-.2-.1-.3-.1-.5-.2-.7 1-1.5 2.4-1.5 3.2 0 .7.3 1.5.5 2.3.3.8.5 1.6.5 2.3 0 .8-.5 1.6-1 2.4-.5.9-1.1 1.8-1.1 2.7 0 1.2.6 2.5.9 3.1.9-.3 1.8-.4 2.7-.7 4.2-1.2 7.2-1.9 8.6-1.9 4.5.2 17.4 3.9 17.4 3.9 2.8.7 5.9 1.2 9.3 2 12.2 3.1 26 6.6 33.6 8.1 3.8.8 7.8 1.2 11.9 1.4 12.8.7 25.2-.8 29-1.8 1-.3 2-.7 3.1-1.1-2.5-2.3-8-7.7-8-11.4 0-4.9 6-6.7 6.2-6.8.5-.1 1 .1 1.2.6.1.5-.1 1-.6 1.2 0 0-4.9 1.5-4.9 5 0 2.9 5.4 8.3 8 10.6 1.6-.7 3.3-1.5 4.8-2.2 2.8-1.3 4.4-2.1 5.4-2.2.3-.1.9-.1 1.7-.2 1.1-.1 2.8-.3 4.5-.6.3-1.2.6-2.4 1-3.6 1.2-3.1 3.9-4 5.6-4.6.4-.1 1-.3 1.3-.5-.6-.2-2.3-1.1-4-2zm-91.7-3.7s-25.9 3.2-29.4 3.2h-.2c-.5 0-.9-.4-.9-.9s.4-.9.9-.9h.2c3.3 0 29.1-3.5 29.1-3.5 26.5-4 48.6 1 48.8 1.1.5.1.8.6.7 1.1s-.6.9-1.1.8c-.2 0-22-4.9-48.1-.9zm57.4 15.3c-.2.1-5.9 2.4-8.9 2.7h-.3c-1.6 0-3.4-.9-4.9-2.6-2-2.1-3.1-4.8-2.8-7.1.1-.8.5-1.3 1.2-1.6 3.2-1.5 13 4.6 15.9 6.6.3.2.5.6.4 1 0 .4-.2.9-.6 1zm25.6-11.3c-.9 0-1.6.7-1.6 1.6 0 .7.4 1.2 1 1.5-.3.1-.6.1-.9.1-1.4 0-2.5-1-2.5-2.2s1.1-2.2 2.5-2.2c1.1 0 2 .6 2.4 1.4-.3-.1-.6-.2-.9-.2z"/><circle class="st3" cx="91.6" cy="247.2" r="5.5"/><circle class="st3" cx="70.1" cy="236.2" r="5.5"/><circle class="st3" cx="68.1" cy="248.7" r="4.7"/><circle class="st3" cx="88.3" cy="234.2" r="4.7"/><circle class="st3" cx="79.6" cy="241.7" r="4"/><circle class="st3" cx="78.9" cy="251.2" r="4"/><path id="infoBox2_1_" class="st8" d="M207.1 541.6h174.7l19.4 12.4 18.3-12.4h175.7V384.9H207.1z"/><text transform="translate(220.5 422.426)" class="st0 st10">Bacteriën zetten de ammonia om</text><text transform="translate(220.5 451.226)" class="st0 st10">in voedingsstoffen voor planten</text><text transform="translate(227.5 482.228)" class="st0 st11">Er zitten</text><text transform="translate(285.6 482.228)" class="st12 st11">gemiddeld</text><text transform="translate(227.5 499.028)" class="st0 st11">aantal nitrieten en</text><text transform="translate(227.5 515.828)" class="st0 st11">nitraten in het water</text><path d="M498.1 480.8l-6.2.7c-1.9.2-3.7-1.2-3.9-3.1-.2-1.9 1.2-3.7 3.1-3.9l6.2-.7c1.9-.2 3.7 1.2 3.9 3.1.2 1.9-1.1 3.7-3.1 3.9z"/><path d="M511.6 478l-5.9 1.8c-1.8.6-3.8-.5-4.4-2.3-.6-1.8.5-3.8 2.3-4.4l5.9-1.8c1.8-.6 3.8.5 4.4 2.3.6 1.9-.4 3.8-2.3 4.4zm-36.3 1.1l-6.3-.1c-1.9 0-3.5-1.7-3.4-3.6 0-1.9 1.7-3.5 3.6-3.4l6.2.1c1.9 0 3.5 1.7 3.4 3.6 0 2-1.6 3.5-3.5 3.4z"/><path d="M523.5 477.7l-6.2-.4c-1.9-.1-3.4-1.8-3.3-3.7.1-1.9 1.8-3.4 3.7-3.3l6.2.4c1.9.1 3.4 1.8 3.3 3.7-.1 2-1.7 3.5-3.7 3.3zM445 506.5l5.7 2.4c1.8.7 2.6 2.8 1.9 4.6-.7 1.8-2.8 2.6-4.6 1.9l-5.7-2.4c-1.8-.7-2.6-2.8-1.9-4.6.8-1.8 2.8-2.7 4.6-1.9zm50.7 17.4l6.2-.3c1.9-.1 3.6 1.4 3.7 3.3.1 1.9-1.4 3.6-3.3 3.7l-6.2.3c-1.9.1-3.6-1.4-3.7-3.3-.2-1.9 1.3-3.6 3.3-3.7z"/><path d="M431.9 502.3l6.1 1.3c1.9.4 3.1 2.3 2.7 4.2-.4 1.9-2.3 3.1-4.2 2.7l-6.1-1.3c-1.9-.4-3.1-2.3-2.7-4.2.4-1.9 2.3-3.1 4.2-2.7zm-13.2-2.8l6.1 1.1c1.9.3 3.2 2.2 2.8 4-.3 1.9-2.2 3.2-4 2.8l-6.1-1.1c-1.9-.3-3.2-2.2-2.8-4 .3-1.8 2.1-3.1 4-2.8zm73.3 9.6l-5.9-2.1c-1.8-.6-2.8-2.6-2.1-4.5.6-1.8 2.6-2.8 4.5-2.1l5.9 2.1c1.8.6 2.8 2.6 2.1 4.5-.7 1.8-2.7 2.8-4.5 2.1z"/><path d="M506.5 510.2l-6.2.5c-1.9.2-3.6-1.3-3.8-3.2-.2-1.9 1.3-3.6 3.2-3.8l6.2-.5c1.9-.2 3.6 1.3 3.8 3.2.2 1.9-1.3 3.6-3.2 3.8zm-72.4-31.6l6 1.8c1.8.5 2.9 2.5 2.4 4.3-.5 1.8-2.5 2.9-4.3 2.4l-6-1.8c-1.8-.5-2.9-2.5-2.4-4.3.5-1.9 2.5-2.9 4.3-2.4z"/><path d="M419.6 478.3l6.1-.9c1.9-.3 3.7 1.1 3.9 3 .3 1.9-1.1 3.7-3 3.9l-6.1.9c-1.9.3-3.7-1.1-3.9-3-.3-1.9 1.1-3.6 3-3.9z"/><circle class="st3" cx="519" cy="511.5" r="2.1"/><circle class="st3" cx="468" cy="516.6" r="3"/><circle class="st3" cx="470.1" cy="499.4" r="2.1"/><circle class="st3" cx="448.4" cy="470.4" r="3.3"/><circle class="st3" cx="488.1" cy="469.3" r="1.9"/><circle class="st3" cx="539.2" cy="493.3" r="4"/><circle class="st3" cx="428.6" cy="494.6" r="1.3"/><circle class="st3" cx="425.5" cy="522.6" r="2.3"/><circle class="st3" cx="461.9" cy="487.2" r="1.4"/><circle class="st3" cx="545.7" cy="513.6" r="2.5"/><path id="infoBox4" class="st8" d="M799.1 210.1h174.7l19.4 12.4 18.3-12.4h175.7V53.3H799.1z"/><path class="st13" d="M816.8 148H850v18.8h-33.2z"/><path class="st14" d="M816.7 148h353m-352.9 18.8h353"/><text transform="translate(816.704 91.4)" class="st0 st10">Het water met voedingsstoffen</text><text transform="translate(816.704 120.2)" class="st0 st10">wordt naar de planten gepompt</text><text transform="translate(816.812 192.052)" class="st0 st11">Op dit moment</text><text transform="translate(917.112 192.052)" class="st12 st11">5</text><text transform="translate(924.912 192.052)" class="st0 st11">liter per minuut</text><path id="infoBox5" class="st8" d="M1020.5 322.6h174.7l19.3 12.4 18.4-12.4h175.7V165.8h-388.1z"/><text transform="translate(1043.67 200)" class="st0 st10">Om de drie dagen wordt de</text><text transform="translate(1043.67 228.8)" class="st0 st10">sla geoogst</text><text transform="translate(1042.274 270)" class="st0 st11">14 mei is er</text><text transform="translate(1116.874 270)" class="st12 st11">5,1</text><text transform="translate(1135.874 270)" class="st0 st11">kg sla geoogst.</text><text transform="translate(1042.274 286.8)" class="st0 st11">Ongeveer</text><text transform="translate(1107.074 286.8)" class="st12 st11">14</text><text transform="translate(1122.874 286.8)" class="st0 st11">kroppen sla.</text><path d="M1291.5 263.2v1.8c0 .3.1.5.4.8s.7.6 1.2.8c1.1.5 2.6.8 4.3.8h39.1c1.7 0 3.2-.3 4.3-.8.5-.2 1-.5 1.2-.8.3-.3.4-.5.4-.8v-1.8h-50.9zm22.9 5.2h5.1v5.8h-5.1zm-9.7 6.8c-3.3 0-5.9 2.6-5.9 5.8v23.3h36.2V281c0-3.2-2.6-5.8-5.9-5.8h-24.4zm12.2 4.4c2.6 0 5.3 1 7.3 3 4 4 4 10.5 0 14.6-4 4-10.6 4-14.6 0s-4-10.5 0-14.6c2.1-2 4.7-3 7.3-3z"/><path d="M1316.9 280.6c-2.4 0-4.8.9-6.6 2.7-3.6 3.6-3.7 9.5 0 13.1 3.6 3.6 9.5 3.6 13.2 0 3.6-3.6 3.6-9.4 0-13.1-1.8-1.8-4.2-2.7-6.6-2.7zm-4.1 4.6h.2c.3 0 .6.1.8.3l2.7 2.7c.7-.1 1.4 0 1.9.6.8.8.8 2.1 0 3-.8.8-2.2.8-3 0-.5-.5-.7-1.2-.6-1.9l-2.7-2.7c-.5-.5-.5-1.2 0-1.7.3-.2.5-.3.7-.3z"/><path class="st15" d="M1301.9 222.9c.9-.3 1.4-.7 1.9-1 .3-.2.7-.4 1.1-.7.2-.1.6-.1.8 0 .2.1.4.3.5.6 1.7-.7 9-2.8 16.2 2.6.3-.2.7-.2 1.2-.1l.5.1.2.4c.2.7 1.1 1.5 2.2 2.4.8.7 1.8 1.5 2.8 2.5 1.6 1.7 3.5 4.7 4.5 8.2.9-.8 1.5-1.7 1.6-2.6.1-.6 0-1.1-.2-1.7-.2-.6-.3-1.2-.4-2.1-.1-.9.2-1.8.3-2.7.2-.8.4-1.8.2-2.3-.2-.4-.7-.8-1.3-1.4-.7-.6-1.6-1.4-2.4-2.4-1.1-1.4-1.3-3.1-1.5-4.4-.1-.7-.2-1.4-.4-1.7-.7-1-2.4-2-4.3-1.9-1.6.1-2.6-.4-3.6-1-.6-.3-1.2-.7-2-.9-2.6-.9-7.7.2-9.3.5-2.1.5-2.8 1.3-3.3 2.2-.2.2-.2.3-.4.6-1 1.1-3.3 2.8-6.1 2.8-1.6 0-4.3 4.8-5.4 6.6-.2.3-.4.7-.5.9-.4.7-.4 1.3-.3 1.8 2.6-3.5 5.8-4.7 7.4-5.3z"/><path class="st16" d="M1307.4 223.2c.1.1.2.1.2.2.4.3.9.7 1.2 1.1.2.2.5.2 1.1.2.6-.1 1.4-.2 2.2.4.9.7 1.1 1.9 1.4 3 .2.7.2 1.5.6 1.9.2.3.7.4 1.1.6.2.1.7.2 1 .3.1-.1.2-.2.4-.3.7-.3 1.2-.6 1.7-.8.7-.3 1.5-.6 2-1.1.7-.7.7-.8.7-1.3v-.7c.1-.3.2-.6.2-.8-5.7-4.5-11.6-3.3-13.8-2.7z"/><path class="st15" d="M1291.4 236.6v-.2c-.1-5.9-4.6-9-4.7-9-.4-.2-.5-.7-.2-1.1.2-.4.7-.5 1.1-.2.2.1 3.3 2.2 4.6 6.3.2-.7.6-1.4.9-2.1-.3-.6-1.1-2.4 0-4.3.2-.2.3-.6.5-.9 2.1-3.7 4.4-7.5 6.8-7.5 2 0 4.1-1.3 4.9-2.3.2-.2.2-.3.3-.5s.2-.3.4-.5c-.2-.4-.8-.9-1.8-.6-1.1.4-1.8.9-2.6 1.5-.8.7-1.8 1.4-3.3 2-2 .7-2.8.6-4.1.3-.7-.2-1.5-.3-2.8-.3-3.1 0-6.8 2.4-9.4 5.9-1.4 1.9-.7 4.4.1 6.6.8 2.3.4 5.1-.4 6.8-.7 1.5-.7 2.9-.3 3.2.7.4 1.1 1.1 1.1 1.8 1.5-.6 2.9-.8 3.9-1.1l.4-.1c1.5-.3 2.9.4 4.2 1 .2.1.4.2.7.2-.3-.8-.5-2.7-.3-4.9zm42.7 9.3c.6-.3 1.5-.9 2.1-1.4 1.3-.8 2.7-1.8 4-2.4 2.9-1.3 5.5-.3 6.4.6.2.2.3.3.4.5l.1.1c.9-.8 2.2-2.3 2.2-3.5 0-.8-.4-1.9-.7-2.8-.2-.5-.3-.9-.5-1.3-.2-.7-.1-1.5.1-2.4.2-1.1.3-2.5 0-3.5-.7-1.6-1.7-2.6-3.6-3.2-.4-.2-.8-.2-1.1-.3-1.4-.4-2.5-.7-3.7-2.4-1.5-2-2.6-3.3-4.1-3.7-1-.2-2.5.1-3.6.3.2.5.4 1.1.7 1.5.7 1 1.5 1.6 2.2 2.2.8.7 1.5 1.2 1.8 2 .3.9.1 2-.2 3.1-.2.8-.3 1.6-.3 2.3s.2 1.2.3 1.7c.2.7.4 1.5.2 2.4-.3 1.5-1.2 2.8-2.8 4.1.3 2 .4 4.1.1 6.1z"/><path class="st16" d="M1316.4 236.8c-.5-1.1-1.1-2.8-1-4.2 0-.1-.1-.2-.1-.2v-.1c-.1-.1-.3-.2-.6-.2-.6-.2-1.4-.3-2-1.1-.6-.7-.7-1.6-.9-2.5-.2-.8-.3-1.7-.7-2-.3-.2-.6-.2-1.1-.2-.7.1-1.5.2-2.4-.7-.3-.3-.7-.7-1.1-.9-.7-.5-1.2-1-1.6-1.5-.1.1-.2.2-.3.2-.5.3-1.1.7-2.2 1.1-1.6.6-4.6 1.7-7.2 5.6-3.2 4.6-2.2 10.2-1.7 12 .3-.2.7-.3 1-.6.8-.5 1.7-1.1 2.7-.9h.4c1.6.2 3.5.3 4.6 1.9.7.9 1.1 1 1.6 1.1h.1c.7.2 1.7.7 2.9 1.3l.5.2c.9.4 1 1.5 1.1 2.4 0 .2.1.7.2.9.1 0 .2 0 .2-.1.4-.2 1.1-.4 2.2 0 1 .3 1.4 1.1 1.6 1.6s.3.7.7.7c.2.1.5.1.8 0-.9-1.2-2.2-3.3-2.1-5.2 0-3.3 1.5-4.6 3.1-5.8 1.7-1.2 1.6-2.2 1.3-2.8zm-16.2-3.5c-.2.1-4.6 1.7-4.6 6.3 0 .4-.4.9-.8.9-.5 0-.8-.5-.8-1 .1-5.8 5.7-7.8 5.7-7.8.4-.2.9.1 1.1.5.1.4-.2.9-.6 1.1z"/><path class="st16" d="M1323.8 251.6c.2-.2.6-.9.8-1.5.7-1.4 1.5-3 3-3.4.6-.2 1-.2 1.3-.2.1-.6.2-1.1.2-1.5-1-3.9-4.7-4.9-4.8-4.9-.4-.1-.7-.6-.6-1s.6-.7 1-.6c.2 0 2.6.7 4.5 2.8-.6-5.9-3.9-8.3-4.1-8.4-.4-.2-.5-.7-.2-1.1.2-.4.7-.5 1.1-.2.2.2 5.5 3.8 4.8 13.3v.3c-.1.5-.1 1.1-.2 1.5h.2c.7-.1.9-.2 1.1-.4.1-.1.2-.1.3-.2 1.5-6.2-1.7-12.6-4.3-15.4-.9-.9-1.8-1.7-2.6-2.4-1.1-.9-2-1.6-2.5-2.6-.1.1-.2.3-.2.7v.5c0 .8-.1 1.5-1.1 2.5-.8.8-1.7 1.1-2.6 1.5-.5.2-1 .4-1.5.7-.6.3-.3 2.2.6 4.2 1.1 2.5-1.2 4.5-2 5-1.6 1.4-2.5 2.2-2.6 4.4-.1 1.6 1.5 3.9 2.4 4.9 1-.1 2-.2 3.2.2 1.1.3 1.6 1.1 2.1 2h.2c.3.5 1.7.2 2.5-.7z"/><path class="st15" d="M1326.7 259.7l-.7-.7c-.7-1-1.6-2-3.1-2.1-1.6-.1-2.4-1.5-3-2.6-.5-.9-.9-1.7-1.7-2-1.1-.4-2.3-.2-3.3-.1-.8.2-1.6.2-2.4.1-1.1-.2-1.5-1-1.8-1.5-.2-.5-.4-.7-.7-.8-.5-.2-.8-.1-1.1 0-.4.2-1.1.3-1.7-.2s-.7-1.3-.7-2.1c0-.4-.1-1-.2-1.1l-.4-.2c-.7-.4-2.1-1.1-2.5-1.1h-.1c-.7-.2-1.6-.3-2.6-1.8-.6-.8-2-1-3.3-1.1h-.4c-.5 0-1.1.3-1.6.7-.9.6-2 1.2-3.3.8-.5-.2-1.1-.4-1.5-.7-1.1-.5-2.3-1.1-3.3-.9l-.4.1c-1.7.3-5 1-6.3 2.7-2 2.1-1.8 2.8-1.4 3.4 0 .1.1.1.1.2.1 0 .2-.1.3-.1.5-.2 1.2-.4 2.3-.3 2.4.2 7.2 3.7 9.2 6.3 1.8 2.4 3.8 4.9 5.7 5.4.3.1.7.2.9.3-.1-.5-.1-1.1-.1-1.6-.2-.7-1.4-6.6-6.5-10-.4-.2-.5-.7-.2-1.1.2-.4.7-.5 1.1-.2 3.3 2.2 5.1 5.2 6.1 7.6.2-.5.2-1 .5-1.5 1.5-4.1 0-7.6 0-7.7-.2-.4 0-.9.4-1.1.4-.2.9 0 1.1.4.1.2 1.8 4.1 0 8.9-1.5 3.8-.7 7.1-.5 7.7.2.2.2.5.4.7.5.9 1.8 1.7 4 1.2.3-.2 1.9-.7 3.6-.7 1 0 2.1.2 3.1.8 2.5 1.5 4.7 2.8 8.2 2.8 3.7 0 6.9-1.1 8.1-2.3.8-1.2.3-3.7-.3-4.5zm-22.7-4.4c.1-.1 2.8-2.1 7.7-2.4.5 0 .8.3.8.8s-.3.8-.8.8c-4.5.2-6.8 2-6.8 2-.2.1-.3.2-.5.2s-.5-.1-.7-.3c-.1-.3-.1-.8.3-1.1zm13.7 5.4c-.2.3-.4.5-.7.5-.1 0-.2 0-.3-.1-6.8-2.8-12.6-.7-12.6-.7-.4.2-.9 0-1.1-.5-.2-.4 0-.9.5-1.1.2-.1 6.5-2.5 13.8.7.4.3.6.8.4 1.2z"/><path class="st15" d="M1349.9 248.5c-.1-.2-.2-.7-.2-.9-.3-1.1-.6-2.1-1.1-2.1-.6 0-1.1-.1-1.5-.2s-.7-.3-1-.6l-.5-.5c-.1-.2-.2-.2-.3-.3-.5-.5-2.4-1.2-4.6-.2-1.1.5-2.5 1.5-3.7 2.3-1.9 1.2-2.9 1.9-3.7 1.9h-.3c-.1 0-.2.1-.2.2-.3.2-.7.4-1.7.6s-1.5 0-1.9-.2c-.3-.1-.5-.2-1.1 0-.7.2-1.5 1.5-2 2.5-.3.7-.7 1.4-1.1 1.8-.7.8-2 1.5-3.1 1.6.4.6.7 1 1.2 1 2.3.2 3.5 1.7 4.3 2.8.2.2.3.4.5.6.3.3.6.8.7 1.4 6.8-1.6 7.9-7.3 8-7.6.1-.4.5-.7.9-.7.4.1.7.5.7.9 0 .1-1.2 7.1-9.3 8.9v.3c.7.1 2.1.1 3.8-.4 2.8-.8 5-3.6 6.1-5.2 1.3-2 3.5-4.6 4.9-5.5 1.2-.8 3.8-1.2 4.9 0 .1 0 .1 0 .3-.1.6-.5 1.2-1.8 1-2.3z"/><path id="infoBox6" class="st8" d="M825.5 471.6h174.7l19.3 12.4 18.4-12.4h175.7V314.9H825.5z"/><circle class="st13" cx="865" cy="442" r="7.4"/><circle class="st13" cx="857.6" cy="422.4" r="7.4"/><circle class="st13" cx="902.2" cy="447.4" r="7.4"/><circle class="st13" cx="887.4" cy="427.7" r="7.4"/><path class="st17" d="M841.8 403.5h2.5"/><path fill="none" stroke="#333" stroke-width="5.969" stroke-miterlimit="10" stroke-dasharray="5.1667,5.1667" d="M849.5 403.5h69.7"/><path class="st17" d="M921.8 403.5h2.5"/><path class="st13" d="M841.8 322.4h82.5v42.2h-82.5z"/><path class="st14" d="M924.3 322.3v88.3m-82.5-88.3v87.3"/><text transform="translate(947.462 348.233)" class="st0 st10">Water wordt gefilterd</text><text transform="translate(947.462 377.033)" class="st0 st10">in de wortelen van</text><text transform="translate(947.462 405.833)" class="st0 st10">de planten</text><text transform="translate(947.462 436.663)" class="st0 st11">11 mei is dit water toegevoegd</text><text transform="translate(947.462 453.463)" class="st0 st11">bij de vissen</text><path id="infoBox3_1_" class="st8" d="M514.1 417.1h174.7l19.4 12.4 18.3-12.4h175.7V260.3H514.1z"/><text transform="translate(535.2 300.21)" class="st19"><tspan x="0" y="0" class="st0 st10">Het residu in het water wordt </tspan><tspan x="0" y="28.8" class="st0 st10">opgegeten door wormen.</tspan></text><text transform="translate(535.2 359.5)" class="st19"><tspan x="0" y="0" class="st0 st11">De wormen zijn op dit moment druk bezig met </tspan><tspan x="0" y="16.8" class="st0 st11">het afbreken van organish afval</tspan><tspan x="0" y="33.6" class="st0 st11">Deze wormen worden aan de vissen gevoerd.</tspan></text></g></g><g id="Test"><path class="st13" d="M931.5-236.1c77 5.8 90.6 46.2 156.1 38.5 34.5-4 47.3-6.7 83.9-24.7 17.1-8.4 39.5-16.6 64.9-19.8 12.8-2.8 24.2-2.8 34.9-2 17.8 1.3 32.5 5.4 45.3 10.7 10.9 4 21.8 9.3 32.8 16.1 1.1.7 2.3 2.2 3.4 3.4l3.3 2.1c.3-.1.6-.2.8-.4l-.6.6c22.1 13.6 42.8 28.3 75.4 24.5 34.5-4 43-25.1 79.6-43.1 40.1-19.7 108.9-38.1 177.9 5 2.5 1.6 5.3 7.1 7.6 5l48.4 211.5L142.8-2.4v-173c47.9-41.9 79.7-45 107-42.9 77 5.8 90.4 43.9 155.9 36.2 34.5-4 47.4-4.4 84.1-22.4 17.1-8.4 39.5-16.6 64.9-19.8 12.8-2.8 24.2-2.8 34.9-2 17.8 1.3 32.5 5.4 45.3 10.7 10.9 4 21.8 9.3 32.8 16.1 1.1.7 2.3 2.2 3.4 3.4l3.3 2.1c.3-.1.6-.2.8-.4l-.6.6c22.1 13.6 46.5 10.5 79 6.7 34.5-4 39.4-7.3 76-25.3 8.7-7 27.1-20 54-24.8 20.7-3.8 37.8-1.2 47.9 1.1z"/><path d="M869.6-243.1c-220 3.4-400.5-11.4-620.5-7.9-.6 6.3-.3 6.9-.1 14.4.4 14.8 2.7 27.6 5.4 38 31.3 106.1 89.5 147 111 158 84.6 43.3 230.5 31 479-177.1l25.2-25.4z" fill="none"/></g><path fill="#ff985d" d="M1893.3-531.6H2033v196.5h-139.7z"/><path class="st22" d="M115.8-493h1676"/><path d="M255.5-526.1v55.8m139.7-55.8v55.8m139.7-55.8v55.8m139.7-55.8v55.8m279.2-55.8v55.8m279.4-55.8v55.8m279.4-55.8v55.8m-419.1-55.8v55.8m279.4-55.8v55.8m279.4-55.8v55.8m-838-55.8v55.8" fill="none" stroke="#000" stroke-miterlimit="10"/></g><g class="st2"><text transform="translate(1040.588 270)" class="st19"><tspan x="0" y="0" class="st0 st26">Klik op de sla om </tspan><tspan x="10.3" y="25.2" class="st0 st26">deze te oogsten</tspan></text><path class="st22" d="M1025.6 344.4c-.7-2.7-1.1-5.1-1.3-7.2-2-21-1.5-33.9 22-47.7"/><path d="M1030.7 336.4l-5.7 5.6-8.1-.2 13.4 13.6z"/></g></svg>