<svg id="Laag_1" xmlns="http://www.w3.org/2000/svg" viewBox="0 0 100 125"><style>.st0,.st1{fill:#44af69}.st1{opacity:.6}</style><path class="st0" d="M38 31.3c1.1-.4 1.7-.8 2.3-1.2.4-.3.8-.5 1.3-.8.3-.1.7-.1 1 0s.5.4.6.7c2.1-.8 11.1-3.4 19.9 3.2.4-.2.9-.2 1.5-.1l.6.1.2.5c.2.9 1.4 1.8 2.7 2.9 1 .9 2.2 1.8 3.4 3.1 2 2.1 4.3 5.8 5.5 10.1 1.1-1 1.8-2.1 2-3.2.1-.7 0-1.3-.3-2.1-.2-.7-.4-1.5-.5-2.6s.2-2.2.4-3.3c.2-1 .5-2.2.3-2.8-.2-.5-.8-1-1.6-1.7-.9-.7-2-1.7-3-3-1.3-1.7-1.6-3.8-1.9-5.4-.1-.9-.3-1.7-.5-2.1-.8-1.2-2.9-2.4-5.3-2.3-2 .1-3.2-.5-4.4-1.2-.7-.4-1.5-.8-2.5-1.1-3.2-1.1-9.5.2-11.4.6-2.6.6-3.4 1.6-4.1 2.7-.2.2-.3.4-.5.7-1.2 1.4-4.1 3.5-7.5 3.5-2 0-5.3 5.9-6.6 8.1-.2.4-.5.8-.6 1.1-.5.8-.5 1.6-.4 2.2 3.5-4.4 7.5-5.9 9.4-6.6z"/><path class="st1" d="M44.8 31.7c.1.1.2.1.3.2.5.4 1.1.8 1.5 1.3.3.3.6.3 1.3.3.7-.1 1.7-.2 2.7.5 1.1.8 1.4 2.3 1.7 3.7.2.9.3 1.8.7 2.3.3.4.8.5 1.3.7.3.1.8.2 1.2.4.1-.1.3-.3.5-.4.8-.4 1.5-.7 2.1-1 .9-.4 1.8-.7 2.5-1.4.8-.8.8-1 .8-1.6v-.9c.1-.4.2-.7.3-1-6.9-5.3-14.2-3.9-16.9-3.1z"/><path class="st0" d="M25.1 48.2V48c-.1-7.3-5.7-11.1-5.8-11.1-.5-.3-.6-.9-.3-1.4.3-.5.9-.6 1.4-.3.2.1 4 2.7 5.7 7.7.3-.9.7-1.7 1.1-2.6-.4-.7-1.4-2.9 0-5.3.2-.3.4-.7.6-1.1 2.6-4.6 5.4-9.2 8.3-9.2 2.5 0 5-1.6 6-2.8.2-.2.3-.4.4-.6.1-.2.3-.4.5-.6-.3-.5-1-1.1-2.2-.7-1.3.5-2.2 1.1-3.2 1.9s-2.2 1.7-4.1 2.4c-2.4.9-3.5.7-5 .4-.9-.2-1.9-.4-3.4-.4-3.8 0-8.4 2.9-11.6 7.3-1.7 2.3-.9 5.4.1 8.1 1 2.8.5 6.3-.5 8.4-.9 1.9-.9 3.6-.4 3.9.9.5 1.3 1.4 1.4 2.2 1.8-.7 3.6-1 4.8-1.3l.5-.1c1.8-.4 3.6.5 5.2 1.2.3.1.5.2.8.3-.2-1.1-.5-3.4-.3-6.1zm52.5 11.4c.7-.4 1.8-1.1 2.6-1.7 1.6-1 3.3-2.2 4.9-2.9 3.6-1.6 6.8-.4 7.9.7.2.2.4.4.5.6l.1.1c1.1-1 2.7-2.8 2.7-4.3 0-1-.5-2.3-.9-3.5-.2-.6-.4-1.1-.6-1.6-.2-.8-.1-1.8.1-3 .2-1.4.4-3.1 0-4.3-.8-2-2.1-3.2-4.4-3.9-.5-.2-1-.3-1.4-.4-1.7-.5-3.1-.9-4.6-2.9-1.8-2.4-3.2-4-5.1-4.5-1.2-.3-3.1.1-4.4.4.2.6.5 1.3.9 1.8.9 1.2 1.9 2 2.7 2.7 1 .8 1.8 1.5 2.2 2.5.4 1.1.1 2.4-.2 3.8-.2 1-.4 2-.4 2.8s.2 1.5.4 2.1c.3.9.5 1.9.3 3-.4 1.8-1.5 3.5-3.5 5 .5 2.5.6 5 .2 7.5z"/><path class="st1" d="M55.9 48.4c-.6-1.4-1.3-3.5-1.2-5.2 0-.1-.1-.2-.1-.3v-.1c-.1-.1-.4-.2-.7-.2-.7-.2-1.7-.4-2.4-1.4-.7-.9-.9-2-1.1-3.1-.2-1-.4-2.1-.9-2.4-.4-.3-.7-.2-1.3-.2-.8.1-1.9.2-3-.8-.4-.4-.9-.8-1.4-1.1-.8-.6-1.5-1.2-2-1.9-.1.1-.3.2-.4.3-.6.4-1.3.9-2.7 1.4-2 .7-5.7 2.1-8.9 6.9-3.9 5.7-2.7 12.6-2.1 14.8.4-.2.8-.4 1.2-.7 1-.6 2.1-1.3 3.3-1.1h.5c2 .2 4.3.4 5.6 2.3.8 1.1 1.3 1.2 2 1.4h.1c.8.2 2.1.8 3.6 1.6l.6.3c1.1.5 1.2 1.8 1.3 3 0 .3.1.9.2 1.1.1 0 .2 0 .2-.1.5-.2 1.4-.5 2.7 0 1.2.4 1.7 1.3 2 2 .3.6.4.8.9.9.3.1.6.1 1 0-1.1-1.5-2.7-4.1-2.6-6.4 0-4 1.9-5.6 3.8-7.1 2.3-1.9 2.2-3.1 1.8-3.9zM36 44.1c-.2.1-5.6 2.1-5.7 7.8 0 .5-.5 1.1-1 1.1-.6 0-1-.6-1-1.2.1-7.1 7-9.6 7-9.6.5-.2 1.1.1 1.3.6.2.5-.1 1.1-.6 1.3z"/><path class="st1" d="M65 66.6c.3-.3.7-1.1 1-1.8.9-1.7 1.9-3.7 3.7-4.2.7-.2 1.2-.2 1.6-.2.1-.7.2-1.3.2-1.9-1.2-4.8-5.8-6-5.9-6-.5-.1-.9-.7-.7-1.2.1-.5.7-.9 1.2-.7.2 0 3.2.8 5.5 3.5-.7-7.3-4.8-10.2-5-10.3-.5-.3-.6-.9-.3-1.4.3-.5.9-.6 1.4-.3.3.2 6.8 4.7 5.9 16.3v.4c-.1.6-.1 1.3-.3 1.9h.2c.8-.1 1.1-.3 1.4-.5.1-.1.2-.1.4-.2 1.9-7.6-2.1-15.5-5.3-18.9-1.1-1.1-2.2-2.1-3.2-2.9-1.4-1.1-2.5-2-3.1-3.2-.1.1-.2.4-.3.8v.6c0 1-.1 1.8-1.4 3.1-1 1-2.1 1.4-3.2 1.8-.6.2-1.2.5-1.8.8-.7.4-.4 2.7.7 5.2 1.3 3.1-1.5 5.5-2.4 6.2-2 1.7-3.1 2.7-3.2 5.4-.1 2 1.8 4.8 2.9 6 1.2-.1 2.5-.2 3.9.3 1.3.4 2 1.4 2.6 2.4h.2c.6.5 2.3.1 3.3-1z"/><path class="st0" d="M68.6 76.6l-.8-.8c-.9-1.2-2-2.5-3.8-2.6-2-.1-2.9-1.8-3.7-3.2-.6-1.1-1.1-2.1-2.1-2.5-1.4-.5-2.8-.3-4.1-.1-1 .2-2 .3-2.9.1-1.3-.3-1.8-1.2-2.2-1.9-.3-.6-.5-.9-.9-1-.6-.2-1-.1-1.4 0-.5.2-1.3.4-2.1-.2-.7-.6-.8-1.6-.9-2.6 0-.5-.1-1.2-.2-1.4l-.5-.2c-.9-.5-2.6-1.3-3.1-1.4h-.1c-.9-.2-2-.4-3.2-2.2-.7-1-2.4-1.2-4.1-1.4H32c-.6 0-1.3.4-2 .8-1.1.7-2.5 1.5-4.1 1-.6-.2-1.3-.5-1.9-.8-1.4-.6-2.8-1.3-4-1.1l-.5.1c-2.1.4-6.1 1.2-7.8 3.3-2.4 2.6-2.2 3.5-1.7 4.2 0 .1.1.1.1.2.1 0 .2-.1.4-.1.6-.2 1.5-.5 2.8-.4 3 .2 8.9 4.5 11.3 7.7 2.2 2.9 4.7 6 7 6.7.4.1.8.3 1.1.4-.1-.6-.1-1.3-.1-2-.2-.8-1.7-8.1-8-12.3-.5-.3-.6-.9-.3-1.4s.9-.6 1.4-.3c4 2.7 6.3 6.4 7.5 9.3.2-.6.3-1.2.6-1.9 1.9-5.1 0-9.4 0-9.5-.2-.5 0-1.1.5-1.3s1.1 0 1.3.5c.1.2 2.2 5.1 0 11-1.8 4.7-.8 8.7-.6 9.5.2.3.3.6.5.9.6 1.1 2.2 2.1 4.9 1.5.4-.2 2.3-.9 4.4-.9 1.2 0 2.6.2 3.8 1 3.1 1.9 5.8 3.4 10.1 3.4 4.6 0 8.5-1.4 9.9-2.8 1.3-1.3.7-4.4 0-5.3zm-28-5.4c.1-.1 3.4-2.6 9.5-2.9.6 0 1 .4 1 1s-.4 1-1 1c-5.5.2-8.4 2.4-8.4 2.4-.2.1-.4.2-.6.2-.3 0-.6-.1-.8-.4s-.1-1 .3-1.3zm16.9 6.6c-.2.4-.5.6-.9.6-.1 0-.3 0-.4-.1-8.3-3.5-15.5-.8-15.5-.8-.5.2-1.1 0-1.3-.6-.2-.5 0-1.1.6-1.3.3-.1 8-3.1 17 .8.5.3.7.9.5 1.4z"/><path class="st0" d="M97.1 62.8c-.1-.3-.2-.8-.3-1.1-.4-1.4-.7-2.6-1.3-2.6-.7 0-1.3-.1-1.8-.3s-.9-.4-1.2-.7l-.6-.6c-.1-.2-.3-.2-.4-.4-.6-.6-2.9-1.5-5.7-.3-1.4.6-3.1 1.8-4.6 2.8-2.3 1.5-3.6 2.3-4.5 2.3h-.4c-.1 0-.2.1-.3.2-.4.2-.9.5-2.1.7s-1.8 0-2.3-.2c-.4-.1-.6-.2-1.4 0-.9.2-1.8 1.8-2.4 3.1-.4.9-.9 1.7-1.3 2.2-.9 1-2.5 1.8-3.8 2 .5.7.9 1.2 1.5 1.2 2.8.2 4.3 2.1 5.3 3.4.2.3.4.5.6.7.4.4.7 1 .9 1.7 8.4-2 9.7-9 9.8-9.4.1-.5.6-.9 1.1-.8s.9.6.8 1.1c0 .1-1.5 8.7-11.4 11v.4c.9.1 2.6.1 4.7-.5 3.5-1 6.2-4.4 7.5-6.4 1.6-2.4 4.3-5.6 6-6.8 1.5-1 4.7-1.5 6 0 .1 0 .1 0 .4-.1.7-.4 1.4-2 1.2-2.6z"/></svg>