<svg width="61" height="44" xmlns="http://www.w3.org/2000/svg"><g fill="none" fill-rule="evenodd"><g fill="#FF4343" fill-rule="nonzero"><path d="M60.807 37.602V23.399a5.927 5.927 0 0 0-5.918-5.919H24.11a5.927 5.927 0 0 0-5.918 5.918v14.205a5.927 5.927 0 0 0 5.918 5.918h30.776a5.926 5.926 0 0 0 5.92-5.92zm-36.694 3.552a3.557 3.557 0 0 1-3.553-3.552V23.399a3.557 3.557 0 0 1 3.553-3.553h30.774a3.557 3.557 0 0 1 3.552 3.552v14.205a3.557 3.557 0 0 1-3.552 3.553l-30.774-.002z"/><path d="M24.114 32.867c-3.157 0-3.157-4.734 0-4.734 3.154 0 3.154 4.734 0 4.734m33.142 0v-4.736a1.183 1.183 0 1 0-2.367 0v4.736a1.183 1.183 0 1 0 2.367 0z"/></g><path fill="#FFF" d="M3 14h27v30H3z"/><g fill="#FF4343" fill-rule="nonzero"><path d="M15.867 37.886c0 3.157-4.734 3.157-4.734 0 0-3.154 4.734-3.154 4.734 0"/><path d="M20.602 1.193H6.398A5.927 5.927 0 0 0 .482 7.111V37.89A5.927 5.927 0 0 0 6.4 43.808h14.204a5.927 5.927 0 0 0 5.918-5.918V7.113a5.926 5.926 0 0 0-5.92-5.92zm3.552 36.694a3.557 3.557 0 0 1-3.552 3.553H6.398a3.557 3.557 0 0 1-3.552-3.553V7.113a3.557 3.557 0 0 1 3.553-3.552h14.204a3.557 3.557 0 0 1 3.553 3.552l-.002 30.774z"/><path d="M15.867 4.744h-4.736a1.183 1.183 0 1 0 0 2.367h4.736a1.183 1.183 0 1 0 0-2.367z"/></g><path d="M30.93 1.824c2.3.207 4.29 1.017 5.972 2.43 1.682 1.413 2.877 3.947 3.584 7.603" stroke="#FF4343" stroke-width="2" stroke-linecap="round"/><path d="M40.233 13.755l-3.499-3.18a1 1 0 0 1 .414-1.706l4.94-1.324a1 1 0 0 1 1.21 1.27l-1.44 4.504a1 1 0 0 1-1.625.436z" fill="#FF4343"/></g></svg>