<svg id="Laag_1" xmlns="http://www.w3.org/2000/svg" viewBox="0 0 100 110"><style>.st0{fill:#f6af69}.st1{fill:#44af69}</style><path class="st0" d="M35.6 10.3c5.5-.1 11.3 3.1 15.3 9.7-1 2.3-1.2 4.4-.9 6.4.1.6.3 1.3.4 1.9l-21.1-8.6c-.9-.3-1.2.3-1.6.8-.6 2.3-1 4.5-1.3 6.5-1.4-2.6-3.5-4.3-4.9-5.2 2.4-6.6 8.1-11.2 14.1-11.5z"/><path class="st1" d="M71.9 17.7c.4.4 1.1.4 1.5.1 6.1-4.4 13.2-3.8 17.9 0 4.6 3.8 6.9 10.7 2.9 19.6-.2.4-.1.8.1 1.1 2.9 3.9 3.6 6.8 3.1 9.6-.5 2.9-2.4 5.9-5.3 9.8H57.5l6.4-6.7c3.2 0 6.1.2 7.9 2 .4.4 1.2.5 1.7 0 .4-.4.5-1.2 0-1.7-2-2-4.7-2.5-7.4-2.6l7.5-7.9c3.7 0 7 .2 8.9 2 .4.4 1.2.5 1.7 0 .4-.4.5-1.2 0-1.7-2.3-2.3-5.4-2.6-8.4-2.6l7.2-7.6c.5-.5.3-1.4-.3-1.8-.6-.4-.9-.1-1.5.1l-6.6 6.9c-.4-3-1.5-6.1-3.5-8.1-.3-.3-.7-.4-1.1-.4-.9.2-1.2 1.4-.6 2 1.7 1.7 2.9 5.5 3.2 8.6L64 47.6c-.3-3.3-1.4-6.8-3.6-9.1-.3-.3-.7-.4-1.1-.4-.9.2-1.2 1.4-.6 2 1.9 1.9 3.2 6.4 3.2 9.6l-7.7 8.1h-6.4c.7-1.5 1.1-3.1 1.1-4.9 0-8 2.4-15 5.7-19.5.3-.3.3-.8.1-1.2-1.2-2.3-2-4.3-2.3-6.2-.6-5.7 5-10.1 10-11.2 3.4-.4 7.4.9 9.5 2.9z"/><path class="st0" d="M18.7 23.5c3.6 2.1 6 4.7 7.5 7.6 0 4.9 1 9.3 2.4 13.6-2 2-3.3 4.7-3.5 7.8-1.5-2.4-4.1-4.1-7.2-4.1-4.6 0-8.3 3.7-8.3 8.3 0 .4 0 .8.1 1.3h-5c-2.9-7.4-2.8-14.7-.1-20.9 2.6-6.6 8.8-11.3 14.1-13.6z"/><path class="st1" d="M29.2 25.2c1.7 3.4 4.3 7 7.2 10.3 3.6 4.1 7.6 7.6 10.8 9.6-.1.5-.2 1-.3 1.6-2.1-3.3-5.8-5.5-10-5.5-2.4 0-4.6.7-6.4 1.9-1.7-5.5-2.5-11.1-1.3-17.9z"/><path d="M30.9 23l8.2 3.4c-.9.1-1.6.8-1.6 1.7 0 1 .8 1.8 1.8 1.8s1.8-.8 1.8-1.8c0-.4-.1-.8-.4-1.1l4.8 1.9c-.5.3-.9.9-.9 1.5 0 1 .8 1.8 1.8 1.8 1.3-.2 1.8-1 1.7-2.2l3.5 1.4c.4.6.4 1.2.5 1.6-.4-.8-1.2-1.3-2.1-1.3-1.3 0-2.4 1.1-2.4 2.4s1.1 2.4 2.4 2.4h.1c-.9 1.9-1.7 4-2.3 6.2-1-.7-2.2-1.6-3.4-2.7 1.2-.1 2.1-1.1 2.1-2.3 0-1.3-1.1-2.4-2.4-2.4-1.3 0-2.3 1-2.4 2.3-1.2-1.1-2.3-2.3-3.5-3.6-2.7-3.6-5.7-7.2-7.3-11zm11.4 7.5c-1 0-1.8.8-1.8 1.8s.8 1.8 1.8 1.8 1.8-.8 1.8-1.8-.8-1.8-1.8-1.8z" fill="#bf211e"/><path d="M36.9 43.6c5.3 0 9.5 4.2 9.5 9.5 0 2.3-.6 3.6-1.4 4.9H28.8c-.9-1.4-1.4-3.1-1.4-4.9.2-5.9 5.1-9.4 9.5-9.5z" fill="#f9dc5c"/><path class="st1" d="M17.9 50.8c3.3 0 5.9 2.6 5.9 5.9 0 .4-.1.8-.1 1.3H12.1c-.1-.5-.1-.9-.1-1.3 0-3.3 2.6-5.9 5.9-5.9z"/><path d="M.2 60.3h99.7c-.1 4.1-.6 8-1.3 11.8h-97C.7 68.3.2 64.4.2 60.3zM2 74.5h96c-1.9 7.7-5.1 14.7-9.3 20.4-6.8 9.3-16 15-25.6 15-8.4.1-17.9.1-26.2 0-9.6 0-18.8-5.7-25.6-15C7.1 89.2 3.9 82.2 2 74.5z" fill="#693d3d"/></svg>