<svg xmlns="http://www.w3.org/2000/svg" viewBox="0 0 100 125"><path style="text-indent:0;text-transform:none;block-progression:tb" d="M10.594 18.094v2.719c0 .393.16.782.562 1.218.402.436 1.05.904 1.875 1.282 1.651.755 4.041 1.25 6.688 1.25H80.28c2.647 0 5.037-.495 6.688-1.25.825-.378 1.473-.846 1.875-1.282.401-.436.562-.825.562-1.218v-2.72H10.594zm35.468 8.062v8.938h7.844v-8.938h-7.844zM31.095 36.688c-5.063 0-9.125 4.037-9.125 9.062v36.156h56.06V45.75c0-5.025-4.062-9.062-9.125-9.062H31.094zM50 43.375c4.104 0 8.216 1.547 11.344 4.656 6.255 6.218 6.255 16.345 0 22.563-6.255 6.217-16.433 6.217-22.688 0-6.255-6.218-6.223-16.345.031-22.563 3.128-3.109 7.208-4.656 11.313-4.656zm0 1.594a14.41 14.41 0 0 0-10.188 4.219c-5.64 5.607-5.672 14.673-.03 20.28 5.641 5.609 14.796 5.578 20.437-.03a14.23 14.23 0 0 0 0-20.25A14.48 14.48 0 0 0 50 44.969zm-6.375 7.156c.114-.019.228-.001.344 0 .462 0 .899.182 1.25.531l4.219 4.188a3.279 3.279 0 0 1 2.968.875 3.232 3.232 0 0 1 0 4.594 3.283 3.283 0 0 1-4.625 0c-.806-.801-1.085-1.937-.875-2.97l-4.187-4.155c-.702-.699-.734-1.865-.031-2.563.263-.262.594-.442.937-.5z" overflow="visible" color="#000"/><text y="115" font-size="5" font-weight="bold" font-family="'Helvetica Neue', Helvetica, Arial-Unicode, Arial, Sans-serif">Created by ehab.abdullah</text><text y="120" font-size="5" font-weight="bold" font-family="'Helvetica Neue', Helvetica, Arial-Unicode, Arial, Sans-serif">from the Noun Project</text></svg>