<svg xmlns="http://www.w3.org/2000/svg" xmlns:xlink="http://www.w3.org/1999/xlink" version="1.1" x="0px" y="0px" viewBox="0 0 100 125" enable-background="new 0 0 100 100" xml:space="preserve"><g><path d="M87.628,25.346C81.043,15.295,70.937,8.41,59.174,5.96c-3.039-0.634-6.141-0.954-9.218-0.954   c-21.169,0-39.672,15.065-43.995,35.82c-2.451,11.764-0.173,23.777,6.412,33.828c6.585,10.051,16.69,16.936,28.454,19.386   c3.039,0.634,6.141,0.954,9.218,0.954c21.169,0,39.672-15.065,43.995-35.82C96.491,47.41,94.213,35.397,87.628,25.346z    M91.198,58.582c-4.045,19.417-21.353,33.509-41.154,33.509c-2.879,0-5.782-0.3-8.627-0.893   C30.413,88.906,20.96,82.465,14.8,73.063C8.64,63.661,6.509,52.422,8.802,41.418C12.846,22.001,30.154,7.909,49.956,7.909   c2.879,0,5.782,0.3,8.627,0.893C69.587,11.094,79.04,17.534,85.2,26.937C91.36,36.339,93.491,47.578,91.198,58.582z"/><path d="M40.433,50.049l0.799,6.824c0.248,2.114-1.28,4.047-3.394,4.294l0,0c-2.114,0.248-4.047-1.28-4.294-3.394l-0.799-6.824   c-0.248-2.114,1.28-4.047,3.394-4.294l0,0C38.253,46.408,40.185,47.935,40.433,50.049z"/><path d="M37.368,35.106l2.02,6.567c0.626,2.035-0.527,4.211-2.561,4.837l0,0c-2.035,0.626-4.211-0.527-4.837-2.561l-2.02-6.567   c-0.626-2.035,0.527-4.211,2.561-4.837l0,0C34.565,31.919,36.742,33.072,37.368,35.106z"/><path d="M21.615,48.955l-0.162,6.869c-0.05,2.128-1.832,3.828-3.96,3.778h0c-2.128-0.05-3.828-1.832-3.778-3.96l0.162-6.869   c0.05-2.128,1.832-3.828,3.96-3.778h0C19.965,45.045,21.666,46.827,21.615,48.955z"/><path d="M37.071,21.941l-0.432,6.857c-0.134,2.125-1.981,3.753-4.106,3.62h0c-2.125-0.134-3.753-1.981-3.62-4.106l0.432-6.857   c0.134-2.125,1.981-3.753,4.106-3.62h0C35.576,17.969,37.205,19.817,37.071,21.941z"/><path d="M65.853,44.983l2.643-6.342c0.819-1.965,3.097-2.903,5.061-2.084l0,0c1.965,0.819,2.903,3.097,2.084,5.061l-2.643,6.342   c-0.819,1.965-3.097,2.903-5.061,2.084l0,0C65.972,49.226,65.034,46.948,65.853,44.983z"/><path d="M80.752,50.251l-0.348-6.862c-0.108-2.126,1.544-3.954,3.67-4.061h0c2.126-0.108,3.954,1.544,4.061,3.67l0.348,6.862   c0.108,2.126-1.544,3.954-3.67,4.061h0C82.687,54.028,80.859,52.377,80.752,50.251z"/><path d="M61.212,59.514l1.452-6.715c0.45-2.081,2.521-3.415,4.601-2.965h0c2.081,0.45,3.415,2.521,2.965,4.601l-1.452,6.715   c-0.45,2.081-2.521,3.415-4.601,2.965h0C62.096,63.665,60.762,61.595,61.212,59.514z"/><path d="M58.176,74.12l1.182-6.768c0.366-2.097,2.382-3.513,4.479-3.147h0c2.097,0.366,3.513,2.382,3.147,4.479l-1.182,6.768   c-0.366,2.097-2.382,3.513-4.479,3.147h0C59.225,78.232,57.81,76.217,58.176,74.12z"/><path d="M60.155,34.178l-2.278,6.482c-0.706,2.008-2.927,3.074-4.935,2.368h0c-2.008-0.706-3.074-2.927-2.368-4.935l2.278-6.482   c0.706-2.008,2.927-3.074,4.935-2.368l0,0C59.795,29.949,60.861,32.17,60.155,34.178z"/><path d="M61.333,18.133l0.605,6.844c0.188,2.12-1.394,4.009-3.514,4.196l0,0c-2.12,0.188-4.009-1.394-4.196-3.514l-0.605-6.844   c-0.188-2.12,1.394-4.009,3.514-4.196h0C59.257,14.431,61.145,16.012,61.333,18.133z"/><path d="M40.655,70.303l1.946-6.589c0.603-2.042,2.767-3.219,4.808-2.616h0c2.042,0.603,3.219,2.767,2.616,4.808l-1.946,6.589   c-0.603,2.042-2.767,3.219-4.808,2.616l0,0C41.229,74.508,40.052,72.345,40.655,70.303z"/><path d="M40.294,86.388l-0.952-6.804c-0.295-2.108,1.188-4.074,3.297-4.369l0,0c2.108-0.295,4.074,1.188,4.369,3.297l0.952,6.804   c0.295,2.108-1.188,4.074-3.297,4.369h0C42.555,89.979,40.589,88.496,40.294,86.388z"/><circle cx="73.643" cy="22.548" r="2.295"/><circle cx="79.26" cy="62.926" r="3.322"/><circle cx="53.588" cy="54.637" r="2.338"/><circle cx="24.131" cy="67.775" r="3.627"/><circle cx="20.245" cy="34.752" r="2.105"/><circle cx="44.52" cy="15.879" r="4.374"/><circle cx="54.021" cy="82.431" r="1.435"/><circle cx="72.677" cy="79.839" r="2.592"/><circle cx="31.396" cy="78.843" r="1.597"/><circle cx="44.04" cy="31.97" r="2.782"/></g><text x="0" y="115" fill="#000000" font-size="5px" font-weight="bold" font-family="'Helvetica Neue', Helvetica, Arial-Unicode, Arial, Sans-serif">Created by Maxim Kulikov</text><text x="0" y="120" fill="#000000" font-size="5px" font-weight="bold" font-family="'Helvetica Neue', Helvetica, Arial-Unicode, Arial, Sans-serif">from the Noun Project</text></svg>