<?xml version="1.0" encoding="utf-8"?>
<!-- Generator: Adobe Illustrator 22.1.0, SVG Export Plug-In . SVG Version: 6.00 Build 0)  -->
<svg version="1.1" id="Laag_1" xmlns="http://www.w3.org/2000/svg" xmlns:xlink="http://www.w3.org/1999/xlink" x="0px" y="0px"
	 viewBox="0 0 100 110" style="enable-background:new 0 0 100 110;" xml:space="preserve">
<style type="text/css">
	.st0{fill:#F9DC5C;}
	.st1{fill:#693D3D;}
	.st2{fill:#F6AF69;}
</style>
<path class="st0" d="M0,61.2c4.1,0,20.5,0,33.3,0c20.9,0,25.7,8.8,30.5,13.7c7.7-9.2,13.5-13.7,23.6-13.7c8.5,0,12.6,0,12.6,0v-2.1
	H0V61.2z"/>
<path class="st1" d="M94.4,65.1h-7.1c-9.6,0-15.1,4.4-22.4,13.2l-1.1,1.3l-1.2-1.2c-0.7-0.7-1.3-1.4-2-2.2
	c-4.5-4.9-10-11.1-27.4-11.1H5.6C2.4,65.6,0,68.3,0,71.6c0,1.2,0,5.3,0,6.5c0,3.6,2.9,6.5,6.5,6.5c1.5,0,85.5,0,86.9,0
	c3.6,0,6.5-2.9,6.5-6.5c0-1.2,0-5.3,0-6.5C100,68.3,97.6,65.6,94.4,65.1z"/>
<path class="st2" d="M3.3,87.9c0,0.3,0,0.7,0,1c0,5.5,2.2,10.4,5.8,14c3.6,3.6,13.7,7.1,40.9,7.1c32.3,0,37.3-3.5,40.9-7.1
	c3.6-3.6,5.8-8.6,5.8-14c0-0.3,0-0.7,0-1H3.3z"/>
<path class="st2" d="M49,25.8c-16.7,0-46,4.6-46,29.9h92C95.1,34.7,69.3,25.8,49,25.8z M16.3,51.8c-1.3,0.1-2.7-0.4-3.6-1.6
	c-0.9-1.2-1.1-2.7-0.7-3.9c1.3-0.1,2.7,0.4,3.6,1.6C16.5,49.1,16.7,50.6,16.3,51.8z M20.4,42.2c-1.2,0.5-2.7,0.3-3.9-0.6
	c-1.2-0.9-1.7-2.3-1.6-3.6c1.2-0.5,2.7-0.3,3.9,0.6C20,39.5,20.5,40.9,20.4,42.2z M28.5,45.7c-0.2,1.5-1.2,2.6-2.4,3.1
	c-1-0.9-1.5-2.3-1.3-3.7c0.2-1.5,1.2-2.6,2.4-3.1C28.2,42.9,28.8,44.3,28.5,45.7z M28.9,36.4c-0.9,1.2-2.3,1.8-3.6,1.7
	c-0.5-1.2-0.3-2.7,0.6-3.9c0.9-1.2,2.3-1.8,3.6-1.7C30,33.7,29.8,35.2,28.9,36.4z M36.5,50.6c-1.2,0.8-2.7,0.9-3.9,0.4
	c0-1.3,0.6-2.7,1.8-3.5c1.2-0.8,2.7-0.9,3.9-0.4C38.4,48.5,37.8,49.8,36.5,50.6z M39.1,44.3c-1.3,0.1-2.7-0.4-3.6-1.6
	c-0.9-1.2-1.1-2.7-0.7-3.9c1.3-0.1,2.7,0.4,3.6,1.6C39.4,41.6,39.6,43.1,39.1,44.3z M38.6,33.5c-1.4-0.6-2.2-1.8-2.4-3.1
	c1.1-0.7,2.6-0.9,3.9-0.3c1.4,0.6,2.2,1.8,2.4,3.1C41.4,34,39.9,34.1,38.6,33.5z M46.1,50.8c-1.4-0.6-2.2-1.8-2.4-3.1
	c1.1-0.7,2.6-0.9,3.9-0.3c1.4,0.6,2.2,1.8,2.4,3.1C48.9,51.3,47.4,51.4,46.1,50.8z M49.2,40.7c-1.2,0.9-2.7,1-3.9,0.5
	c-0.1-1.3,0.5-2.7,1.7-3.6c1.2-0.9,2.7-1,3.9-0.5C51,38.5,50.4,39.9,49.2,40.7z M50.9,30.1c1.2-0.6,2.7-0.6,4,0.1
	c1.3,0.7,2,2,2.1,3.4c-1.2,0.6-2.7,0.6-4-0.1C51.7,32.7,51,31.4,50.9,30.1z M56.7,50.2c-1.3-0.4-2.3-1.5-2.7-2.9
	c-0.4-1.4,0-2.9,1-3.8c1.3,0.4,2.3,1.5,2.7,2.9C58.1,47.8,57.7,49.2,56.7,50.2z M65.2,32.1c1.4-0.4,2.9,0,3.9,0.9
	c-0.4,1.3-1.4,2.3-2.9,2.7c-1.4,0.4-2.9,0-3.9-0.9C62.7,33.5,63.8,32.5,65.2,32.1z M66.8,43.6c-1.2,0.8-2.7,0.9-3.9,0.4
	c0-1.3,0.6-2.7,1.8-3.5c1.2-0.8,2.7-0.9,3.9-0.4C68.6,41.4,68,42.7,66.8,43.6z M71,50.8c-1.4-0.6-2.2-1.8-2.4-3.1
	c1.1-0.7,2.6-0.9,3.9-0.3c1.4,0.6,2.2,1.8,2.4,3.1C73.8,51.3,72.4,51.4,71,50.8z M77.6,39.5c-0.3,1.5-1.2,2.6-2.5,3.1
	c-1-0.9-1.5-2.3-1.2-3.8c0.3-1.5,1.2-2.6,2.5-3.1C77.3,36.7,77.9,38.1,77.6,39.5z M86.7,49.2c-0.2,1.5-1.2,2.6-2.4,3.1
	c-1-0.9-1.5-2.3-1.3-3.7c0.2-1.5,1.2-2.6,2.4-3.1C86.4,46.3,86.9,47.7,86.7,49.2z"/>
<image style="overflow:visible;" width="900" height="600" xlink:href="AB4599B4.jpg"  transform="matrix(1 0 0 1 -933 -297)">
</image>
</svg>
