<?xml version="1.0" encoding="utf-8"?>
<!-- Generator: Adobe Illustrator 22.1.0, SVG Export Plug-In . SVG Version: 6.00 Build 0)  -->
<svg version="1.1" id="Laag_1" xmlns="http://www.w3.org/2000/svg" xmlns:xlink="http://www.w3.org/1999/xlink" x="0px" y="0px"
	 viewBox="0 0 352 149.3" style="enable-background:new 0 0 352 149.3;" xml:space="preserve">
<path d="M168.9,111.9c4,1,7.9,1.9,11.5,2.8c-1.3,0.7-2.6,1.6-3.8,3c-0.6,0.6-1.2,1.4-1.9,2.2c-5.1,6-12.7,15-25.9,12.9
	c-18.3-2.8-53.5-19.4-52.9-25c0.3-2.7,1.9-3.5,5.1-4.7c2.8-1.1,6.2-2.5,8-6.3c3.7,0.9,7.4,1.9,11.2,2.8l-7,5.8c-0.9,0.7-1,2-0.3,2.8
	c0.4,0.5,1,0.7,1.6,0.7c0.5,0,0.9-0.2,1.3-0.5l9.1-7.5c0,0,0.1-0.1,0.1-0.1c0.7,0.2,1.5,0.4,2.2,0.6c2.7,0.7,5.5,1.4,8.3,2.1
	l-9.8,7.3c-0.9,0.7-1.1,1.9-0.4,2.8c0.4,0.5,1,0.8,1.6,0.8c0.4,0,0.8-0.1,1.2-0.4l10.9-8.2c0.4-0.3,0.7-0.8,0.8-1.3
	c3.4,0.9,6.8,1.7,10.2,2.6l-10.6,8.6c-0.9,0.7-1,2-0.3,2.8c0.4,0.5,1,0.7,1.6,0.7c0.4,0,0.9-0.1,1.3-0.5l12.8-10.4
	c0.1,0,0.1-0.1,0.1-0.1c3.1,0.8,6.2,1.6,9.3,2.3l-12,10.1c-0.9,0.7-1,2-0.2,2.8c0.4,0.5,1,0.7,1.5,0.7c0.5,0,0.9-0.2,1.3-0.5
	L168.9,111.9z"/>
<path d="M208.1,139.6c-0.3,0.2-0.6,0.2-1,0.2c-0.7,0-1.4-0.4-1.8-1.1c-0.5-1-0.2-2.2,0.8-2.7c0.4-0.2,8.6-4.9,9.7-14.8
	c-0.6-0.1-1.2-0.1-1.7-0.2c-1.8,2-6.8,7.1-12.2,9.1c-1.5,0.6-3,1-4.3,1.4c-5,1.5-6.6,2.2-6.6,5c0,2.4,4.5,11.9,17.2,11.9
	c11.3,0,14.5-19,15-26.6c-1.1-0.1-2.1-0.1-3.2-0.2C218.7,133.7,208.6,139.3,208.1,139.6z"/>
<path d="M15.8,85.8l25-4.2c0.1,0,0.3,0,0.4,0c0.4-2.2,1.5-4.1,2.5-5.8l-21.1-2.1c-1.1-0.1-1.9-1.1-1.8-2.2c0.1-1.1,1.2-1.9,2.2-1.8
	L45.4,72c-0.1-0.9-0.4-2-0.8-3.2c-0.5-1.4-1-3-1.2-4.7l-23.7-7.3c-1.1-0.3-1.7-1.5-1.3-2.5c0.3-1.1,1.5-1.7,2.5-1.3l22.9,7.1
	c0.7-2.1,1.9-4.2,2.9-5.7C33.3,49.2,18,43.6,5.9,42.5C2.4,49.6,5.2,58.3,7,64.1c0.9,2.7,1.5,4.6,1.5,6.1c0,1.9-1.2,4.1-2.8,7.1
	c-2.9,5.3-6.8,12.5-5.3,20.5c9.4,1.9,27.5-2.3,42.6-6.5c-0.7-1.4-1.5-3.4-1.9-5.5l-24.8,4.1c-0.1,0-0.2,0-0.3,0c-1,0-1.8-0.7-2-1.7
	C14,87,14.7,86,15.8,85.8z"/>
<path d="M122.6,50.6c8.1-1.7,16.8-3.5,25.8-5.2c-2.6-0.4-5.3-0.8-8.1-1.4c-2.3-0.5-5.2-1.3-8.3-2.1c-6.3-1.8-17-4.7-19.8-3.1
	c-0.5,1.3,0.7,2.3,3.7,4.3C118.5,44.8,121.9,47.1,122.6,50.6z"/>
<path d="M256.6,41.8c2.5,0.4,4.9,0.9,7.3,1.4c-4.5-4-10.3-10.2-14.5-16.6c-7.9-12-22.2-26.3-30.1-26.3c-0.1,0-0.1,0-0.2,0
	c-2,0-2.6,1.7-2.8,2c-1.4,1.7-0.8,6.2-0.4,9.5C217.3,12,240,17,256.6,41.8z"/>
<path d="M247.8,40.5c1.1,0.2,2.2,0.3,3.3,0.5c-13.4-18.1-30.2-23.5-34.8-24.7c0,0.8,0.1,1.6,0,2.3c-0.7,4.9,0.1,8.6,6.4,10.1
	C226.3,29.5,243.9,33.9,247.8,40.5z"/>
<path d="M236.5,85.8c-0.1,0-0.2,0.1-0.2,0.4c-0.6,4.5,2.1,9.1,4.8,11.9c2.7,2.8,5.8,4.4,8,4.2c4.1-0.4,11.1-2.9,15-4.4
	c-10.4-6.5-22.1-12.3-26.5-12.3C237.1,85.6,236.7,85.7,236.5,85.8z"/>
<path d="M333.3,98.9c2.5,17.6-5.5,33.6-11.9,35.4c0,0-1.9,0.7-1.5,2.6c0.4,1.8,2.6,1.3,2.6,1.3c8.9-2.5,17.4-20.8,14.7-39.9
	L333.3,98.9z"/>
<path d="M347.6,105.8c-1.7-4.1-2.5-8.4-2.8-10.4c1.8-1,3.3-2.1,4.3-3.6c-1.4-0.9-4.3-2.2-7-3.3c-1.3,1-2.4,2.4-3.1,4.3
	c-0.7,1.7-1.2,3.5-1.7,5.4c1.2-0.3,2.5-0.7,3.6-1.1c0.4,2.4,1.3,6.4,2.9,10.2l0.2,0.5c2.1,5.2,3.9,11.1-2.5,14.8
	c-1,0.6-1.3,1.8-0.7,2.8c0.4,0.6,1.1,1,1.7,1c0.3,0,0.7-0.1,1-0.3c10-5.8,5.8-16,4.3-19.8L347.6,105.8z"/>
<path d="M341.9,75.6c7.8-5,9.4-13.5,9.5-14c0.2-1.1-0.5-2.1-1.6-2.3c-1.1-0.2-2.1,0.5-2.3,1.6c-0.1,0.4-1.8,8.9-10.1,12.5
	c-0.8-0.3-1.5-0.7-2-0.9c0,0-0.1,0-0.1,0c7.9-4.9,8-15.2,8-15.7c0-1.1-0.9-1.8-2-1.8c0,0,0,0,0,0c-1.1,0-2,0.7-2,1.8
	c0,0.4-0.1,10.7-8.4,13.5c-0.1,0-0.2,0.1-0.3,0.1c-0.5-0.2-0.9-0.5-1.2-0.7c-5.8-3.6-56.9-27.3-111.7-27.3
	c-40.1,0-87.1,10.7-115.2,17.1c-13,3-21.6,4.9-25.1,4.9c-5.1,0-14.2-3.6-25.8-8.2c-0.3-0.1-0.7-0.3-1.1-0.4
	c-1.5,2.1-3.2,5.1-3.2,6.8c0,1.6,0.6,3.3,1.1,4.9c0.6,1.7,1.1,3.4,1.1,5c0,1.8-1,3.5-2.1,5.2c-1.1,1.9-2.3,3.8-2.3,5.8
	c0,2.6,1.2,5.2,2,6.7c2-0.6,3.9-0.9,5.7-1.4c9-2.6,15.5-4.2,18.3-4.1c9.6,0.4,37.2,8.4,37.2,8.4c6,1.5,12.7,2.5,20,4.4
	c26,6.6,55.5,14.1,71.8,17.4c8.1,1.6,16.8,2.6,25.3,3.1c0,0,0,0,0,0c0,0,0,0,0.1,0c27.3,1.6,53.9-1.6,62-3.8
	c2.1-0.6,4.4-1.4,6.7-2.3c-5.4-4.9-17.1-16.4-17.1-24.3c0-10.4,12.7-14.4,13.3-14.5c1.1-0.3,2.2,0.3,2.5,1.3
	c0.3,1.1-0.3,2.2-1.3,2.5c-0.1,0-10.4,3.2-10.4,10.7c0,6.3,11.6,17.8,17.2,22.6c3.5-1.5,7-3.2,10.2-4.6c6-2.8,9.4-4.4,11.5-4.8
	c0.7-0.1,2-0.3,3.6-0.4c2.4-0.2,5.9-0.6,9.6-1.2c0.6-2.6,1.3-5.2,2.2-7.7c2.5-6.6,8.3-8.5,12.1-9.8c0.9-0.3,2.2-0.7,2.8-1.1
	C349.1,79.3,345.5,77.4,341.9,75.6z M146,67.6c0,0-55.5,6.9-62.9,6.9c-0.2,0-0.3,0-0.5,0c-1.1,0-2-0.9-2-2c0-1.1,0.9-1.9,2-1.9
	c0.1,0,0.3,0,0.5,0c7.1,0,62.3-7.4,62.3-7.4c56.6-8.6,103.9,2.2,104.4,2.3c1.1,0.3,1.8,1.3,1.5,2.4c-0.3,1.1-1.3,2-2.4,1.7
	C248.3,69.5,201.8,59.1,146,67.6z M268.5,100.4c-0.5,0.2-12.5,5.2-19.1,5.8c-0.2,0-0.5,0-0.7,0c-3.3,0-7.2-2-10.5-5.5
	c-4.3-4.5-6.5-10.2-5.9-15.2c0.2-1.6,1.1-2.9,2.5-3.5c6.8-3.1,27.8,9.9,34.1,14c0.7,0.5,1,1.3,0.9,2
	C269.9,99.1,269.4,100.1,268.5,100.4z M323.3,76.1c-1.9,0-3.5,1.6-3.5,3.5c0,1.4,0.9,2.6,2.1,3.2c-0.6,0.2-1.2,0.3-1.9,0.3
	c-3,0-5.4-2.1-5.4-4.7c0-2.6,2.4-4.7,5.4-4.7c2.3,0,4.3,1.3,5,3C324.6,76.4,324,76.1,323.3,76.1z"/>
</svg>
