<?xml version="1.0" encoding="utf-8"?>
<!-- Generator: Adobe Illustrator 22.1.0, SVG Export Plug-In . SVG Version: 6.00 Build 0)  -->
<svg version="1.1" id="Laag_1" xmlns="http://www.w3.org/2000/svg" xmlns:xlink="http://www.w3.org/1999/xlink" x="0px" y="0px"
	 viewBox="0 0 100 110" style="enable-background:new 0 0 100 110;" xml:space="preserve">
<style type="text/css">
	.st0{fill:#F9F0DB;}
	.st1{fill:#F9DC5C;}
	.st2{fill:#693D3D;}
</style>
<path class="st0" d="M72.8,22.7c0.1,2.3,0.2,7.6,0.2,14c-1.6,0.2-2.6,1-3.5,1.6c-0.9,0.7-1.8,1.3-3.5,1.3c-1.7,0-2.5-0.6-3.5-1.3
	c-1.1-0.8-2.3-1.7-4.6-1.7s-3.5,0.9-4.6,1.7c-0.9,0.7-1.8,1.3-3.5,1.3s-2.5-0.6-3.5-1.3c-1.1-0.8-2.3-1.7-4.6-1.7
	c-2.3,0-3.5,0.9-4.6,1.7c-0.9,0.7-1.8,1.3-3.5,1.3s-2.5-0.6-3.5-1.3c-0.9-0.7-1.9-1.4-3.5-1.6c0-6.5,0.2-11.7,0.2-14
	C27.2,22.7,72.8,22.7,72.8,22.7z"/>
<path class="st1" d="M70.8,62.8c-0.8,2.9-1.6,5.6-2.5,8.2c-2,6.1-3.9,11.9-3.9,20.2v7.3H35.6v-7.3c0-8.3-1.9-14.1-3.9-20.2
	c-0.8-2.6-1.7-5.2-2.5-8.2c-1.8-6.8-2.2-17.9-2.3-27c1,0.2,1.6,0.5,2.4,1c1.1,0.6,2.3,1.4,4.6,1.4s3.5-0.7,4.6-1.4
	c0.9-0.6,1.8-1.1,3.5-1.1s2.5,0.5,3.5,1.1c1.1,0.6,2.3,1.4,4.6,1.4c2.3,0,3.5-0.7,4.6-1.4c0.9-0.6,1.8-1.1,3.5-1.1s2.5,0.5,3.5,1.1
	c1.1,0.6,2.3,1.4,4.6,1.4s3.5-0.7,4.6-1.4c0.7-0.4,1.3-0.8,2.4-1C73,44.8,72.6,56,70.8,62.8z"/>
<rect x="35.6" y="101.2" class="st2" width="28.8" height="8.8"/>
</svg>
