<?xml version="1.0" encoding="utf-8"?>
<!-- Generator: Adobe Illustrator 22.1.0, SVG Export Plug-In . SVG Version: 6.00 Build 0)  -->
<svg version="1.1" id="Laag_1" xmlns="http://www.w3.org/2000/svg" xmlns:xlink="http://www.w3.org/1999/xlink" x="0px" y="0px"
	 viewBox="0 0 1431.1 729" style="enable-background:new 0 0 1431.1 729;" xml:space="preserve">
<style type="text/css">
	.st0{font-family:'TisaOT-Medi';}
	.st1{font-size:50px;}
	.st2{opacity:0.5;}
	.st3{fill:#854D27;}
	.st4{clip-path:url(#SVGID_2_);fill:#29ABE2;}
	.st5{fill:none;stroke:#333333;stroke-width:15;}
	.st6{fill:#F7931E;stroke:#FFFFFF;stroke-width:5;stroke-miterlimit:10;}
	.st7{fill:#333333;stroke:#FFFFFF;stroke-width:5;}
	.st8{fill:#FFFFFF;stroke:#333333;stroke-width:5.9687;stroke-miterlimit:10;}
	.st9{font-size:98.6415px;}
	.st10{font-size:24px;}
	.st11{font-size:14px;}
	.st12{font-family:'TisaOT-Bold';}
	.st13{fill:#29ABE2;}
	.st14{fill:none;stroke:#333333;stroke-width:5;stroke-linecap:round;stroke-miterlimit:10;}
	.st15{fill:#44AF69;}
	.st16{opacity:0.6;fill:#44AF69;enable-background:new    ;}
	.st17{fill:none;stroke:#333333;stroke-width:5.9687;stroke-miterlimit:10;}
	.st18{fill:none;stroke:#333333;stroke-width:5.9687;stroke-miterlimit:10;stroke-dasharray:5.1667,5.1667;}
	.st19{enable-background:new    ;}
	.st20{fill:none;}
	.st21{fill:#FF985D;}
	.st22{fill:none;stroke:#000000;stroke-width:2;stroke-miterlimit:10;}
	.st23{fill:none;stroke:#000000;stroke-miterlimit:10;}
	.st24{display:none;}
	.st25{display:inline;opacity:0.32;fill:#2274A5;enable-background:new    ;}
</style>
<text transform="matrix(1 0 0 1 285.6002 89.0503)" class="st0 st1">De Aquaponics</text>
<g id="Laag_1_2_">
	<g id="Laag_1_1_">
		<g>
			<g id="dirt" class="st2">
				<path class="st3" d="M1218.2,411.5c-3.7-2.9-40.2-10.2-47.1-9.7c-12.7,0.8-15.9,14.3-29.5,18.1c-12.4,3.5-15.5-6.1-32-6.6
					c-24.7-0.7-31.2,20.5-51.7,17.6c-14.2-2-13.7-12.6-31.3-16.6c-17.4-4-22.2,5.4-40,3.2c-23.4-2.8-25.8-23-44-22.7
					c-13.2,0.2-17.5,10.4-37.4,22.5c-17.9,10.9-23,10.2-36.2,12.3c33.7,28.3,70.1,52.4,119.6,81.6c72.8,42.9,155.1,80.5,225.9,84.9
					L1218.2,411.5z"/>
			</g>
			<g id="dirt_1_" class="st2">
				<path class="st3" d="M1218.2,408.7c-2.8,3.9-37.9,7.6-44.4,9.3c-13.5,3.4-20.3-10.2-32.8-7.8c-14,2.7-14.4,21.7-31,24.7
					c-4.4,0.8-8.1,0-15.5-1.6c-14.3-3.1-19-8.2-28-11.5c-19.2-7.1-25,5.7-48,1c-13-2.7-15.4-7.6-23.5-11.8c0,0-4.2-2.1-10.5-3.7
					c-14.1-3.5-27.2,7.3-43.9,10c-21.8,3.6-26.9-10.5-47-7.5c-9.7,1.4-13.1-3.9-27.4,14.3c33.1,29,71,57.2,122.2,87.1
					c73.2,42.7,156.8,77.8,225.9,80.6L1218.2,408.7z"/>
			</g>
		</g>
		<g id="water">
			<g>
				<g>
					<g>
						<defs>
							<path id="SVGID_1_" d="M719.7,315.3c-118.2-2.6-329.4,2.8-489.7,5.3c-11.1,7.8-16.4,62.2-13.9,69.3
								c0.4,14.8-1.4,26.9,1.3,37.3c31.3,106.1,89.5,147,111,158C413,628.6,568.3,605,816.8,396.9L719.7,315.3z"/>
						</defs>
						<clipPath id="SVGID_2_">
							<use xlink:href="#SVGID_1_"  style="overflow:visible;"/>
						</clipPath>
						<path class="st4" d="M894.5,389.9c77,5.8,90.6,46.2,156.1,38.5c34.5-4,47.3-6.7,83.9-24.7c17.1-8.4,39.5-16.6,64.9-19.8
							c12.8-2.8,24.2-2.8,34.9-2c17.8,1.3,32.5,5.4,45.3,10.7c10.9,4,21.8,9.3,32.8,16.1c1.1,0.7,2.3,2.2,3.4,3.4
							c1.1,0.7,2.2,1.4,3.3,2.1c0.3-0.1,0.6-0.2,0.8-0.4c-0.2,0.2-0.4,0.4-0.6,0.6c22.1,13.6,42.8,28.3,75.4,24.5
							c34.5-4,43-25.1,79.6-43.1c40.1-19.7,108.9-38.1,177.9,5c2.5,1.6,5.3,7.1,7.6,5l48.4,211.5l-1602.5,6.4v-173
							c47.9-41.9,79.7-45,107-42.9c77,5.8,90.4,43.9,155.9,36.2c34.5-4,47.4-4.4,84.1-22.4c17.1-8.4,39.5-16.6,64.9-19.8
							c12.8-2.8,24.2-2.8,34.9-2c17.8,1.3,32.5,5.4,45.3,10.7c10.9,4,21.8,9.3,32.8,16.1c1.1,0.7,2.3,2.2,3.4,3.4
							c1.1,0.7,2.2,1.4,3.3,2.1c0.3-0.1,0.6-0.2,0.8-0.4c-0.2,0.2-0.4,0.4-0.6,0.6c22.1,13.6,46.5,10.5,79,6.7
							c34.5-4,39.4-7.3,76-25.3c8.7-7,27.1-20,54-24.8C867.2,385,884.3,387.5,894.5,389.9z"/>
					</g>
				</g>
			</g>
		</g>
		<g id="infinity">
			<path id="motionPath_1_" class="st5" d="M808.3,380.7c-790.4-684.5-792.5,733.5,11.2,13.7c165.5-148.2,297.1-205.6,395-209.3V596
				c0,0-168.5-15-375.7-191.3"/>
			<circle id="circlePath" class="st6" cx="744.7" cy="333.4" r="25"/>
		</g>
		<g id="info">
			<circle id="infoFeeding" class="st7" cx="594.2" cy="235" r="35"/>
			<circle id="infoFish" class="st7" cx="220.5" cy="335" r="35"/>
			<circle id="infoAmmonia" class="st7" cx="401.2" cy="604" r="35"/>
			<circle id="infoWorms" class="st7" cx="708.2" cy="480" r="35"/>
			
				<ellipse id="infoBacteria" transform="matrix(0.4641 -0.8858 0.8858 0.4641 297.5499 1021.7667)" class="st7" cx="993.2" cy="265" rx="35" ry="35"/>
			<circle id="infoPlantGrowth" class="st7" cx="1214.5" cy="394.5" r="35"/>
			<circle id="infoFishFood" class="st7" cx="1019.5" cy="534" r="35"/>
		</g>
		<g id="infoBox">
			<g>
				<polygon id="infoBox_1_" class="st8" points="400.1,171.5 574.8,171.5 594.2,183.9 612.5,171.5 788.2,171.5 788.2,14.7 
					400.1,14.7 				"/>
				<text transform="matrix(1 0 0 1 456.8393 126.9504)" class="st0 st9">30</text>
				<text transform="matrix(1 0 0 1 629.2002 91.4005)" class="st0 st10">meervallen</text>
				<text transform="matrix(1 0 0 1 629.2002 120.2005)" class="st0 st10">in het water</text>
				<text transform="matrix(1 0 0 1 448.8391 55.8506)" class="st0 st10">Op dit moment</text>
			</g>
			<g>
				<polygon id="infoBox1_1_" class="st8" points="26.4,272.1 201.2,272.1 220.5,284.5 238.8,272.1 414.6,272.1 414.6,115.4 
					26.4,115.4 				"/>
				<text transform="matrix(1 0 0 1 45.6924 147.9676)" class="st0 st10">De vissen scheiden ammonia uit</text>
				<text transform="matrix(1 0 0 1 255.5002 192.052)" class="st0 st11">Er zit </text>
				<text transform="matrix(1 0 0 1 255.5002 208.852)" class="st12 st11">boven gemiddeld</text>
				<text transform="matrix(1 0 0 1 370.1002 208.852)" class="st0 st11"> </text>
				<text transform="matrix(1 0 0 1 255.5002 225.652)" class="st0 st11">ammonia in het water</text>
				<g>
					<path d="M135,213c1.9,0.5,3.7,0.9,5.4,1.3c-0.6,0.3-1.2,0.8-1.8,1.4c-0.3,0.3-0.6,0.6-0.9,1c-2.4,2.8-5.9,7-12.1,6.1
						c-8.6-1.3-25-9.1-24.8-11.7c0.1-1.3,0.9-1.6,2.4-2.2c1.3-0.5,2.9-1.1,3.7-2.9c1.7,0.4,3.5,0.9,5.2,1.3l-3.3,2.7
						c-0.4,0.3-0.5,0.9-0.1,1.3c0.2,0.2,0.5,0.3,0.7,0.3s0.4-0.1,0.6-0.2l4.3-3.5c0,0,0,0,0.1-0.1c0.3,0.1,0.7,0.2,1,0.3
						c1.3,0.3,2.6,0.7,3.9,1l-4.6,3.4c-0.4,0.3-0.5,0.9-0.2,1.3c0.2,0.2,0.5,0.4,0.8,0.4c0.2,0,0.4-0.1,0.6-0.2l5.1-3.8
						c0.2-0.1,0.3-0.4,0.4-0.6c1.6,0.4,3.2,0.8,4.8,1.2l-5,4c-0.4,0.3-0.5,0.9-0.1,1.3c0.2,0.2,0.5,0.3,0.7,0.3s0.4-0.1,0.6-0.2
						l6-4.9c0,0,0,0,0.1-0.1c1.5,0.4,2.9,0.7,4.3,1.1l-5.6,4.7c-0.4,0.3-0.4,0.9-0.1,1.3c0.2,0.2,0.5,0.3,0.7,0.3s0.4-0.1,0.6-0.2
						L135,213z"/>
					<path d="M153.3,226c-0.1,0.1-0.3,0.1-0.4,0.1c-0.3,0-0.7-0.2-0.8-0.5c-0.2-0.5-0.1-1,0.4-1.3c0.2-0.1,4-2.3,4.6-6.9
						c-0.3,0-0.5-0.1-0.8-0.1c-0.8,0.9-3.2,3.3-5.7,4.3c-0.7,0.3-1.4,0.5-2,0.7c-2.3,0.7-3.1,1-3.1,2.3c0,1.1,2.1,5.6,8,5.6
						c5.3,0,6.8-8.9,7-12.5c-0.5,0-1-0.1-1.5-0.1C158.3,223.2,153.5,225.8,153.3,226z"/>
					<path d="M63.3,200.8l11.7-1.9c0.1,0,0.1,0,0.2,0c0.2-1,0.7-1.9,1.2-2.7l-9.9-1c-0.5-0.1-0.9-0.5-0.8-1c0-0.5,0.5-0.9,1-0.8
						l10.4,1.1c0-0.4-0.2-0.9-0.4-1.5c-0.2-0.7-0.5-1.4-0.6-2.2L65,187.4c-0.5-0.2-0.8-0.7-0.6-1.2c0.2-0.5,0.7-0.8,1.2-0.6
						l10.7,3.3c0.3-1,0.9-2,1.4-2.7c-6.2-2.4-13.4-5-19-5.6c-1.7,3.3-0.4,7.4,0.5,10.1c0.4,1.2,0.7,2.1,0.7,2.8
						c0,0.9-0.6,1.9-1.3,3.3c-1.3,2.5-3.2,5.8-2.5,9.6c4.4,0.9,12.8-1.1,19.9-3c-0.3-0.7-0.7-1.6-0.9-2.6l-11.6,1.9
						c-0.1,0-0.1,0-0.2,0c-0.5,0-0.9-0.3-0.9-0.8C62.5,201.4,62.8,200.9,63.3,200.8z"/>
					<path d="M113.3,184.3c3.8-0.8,7.8-1.6,12.1-2.4c-1.2-0.2-2.5-0.4-3.8-0.6c-1.1-0.2-2.4-0.6-3.9-1c-3-0.8-7.9-2.2-9.2-1.5
						c-0.2,0.6,0.3,1.1,1.7,2C111.4,181.6,113,182.7,113.3,184.3z"/>
					<path d="M176,180.2c1.2,0.2,2.3,0.4,3.4,0.6c-2.1-1.9-4.8-4.8-6.8-7.8c-3.7-5.6-10.4-12.3-14.1-12.3h-0.1
						c-0.9,0-1.2,0.8-1.3,0.9c-0.7,0.8-0.4,2.9-0.2,4.4C157.6,166.3,168.2,168.6,176,180.2z"/>
					<path d="M171.9,179.6c0.5,0.1,1,0.1,1.5,0.2c-6.3-8.4-14.1-11-16.3-11.6c0,0.4,0,0.8,0,1.1c-0.3,2.3,0,4,3,4.7
						C161.8,174.5,170.1,176.5,171.9,179.6z"/>
					<path d="M166.6,200.8c0,0-0.1,0-0.1,0.2c-0.3,2.1,1,4.2,2.2,5.5s2.7,2.1,3.7,2c1.9-0.2,5.2-1.3,7-2c-4.8-3-10.3-5.7-12.4-5.7
						C166.9,200.7,166.7,200.8,166.6,200.8z"/>
					<path d="M211.9,206.9c1.2,8.2-2.6,15.7-5.5,16.6c0,0-0.9,0.3-0.7,1.2c0.2,0.8,1.2,0.6,1.2,0.6c4.1-1.2,8.1-9.8,6.9-18.6
						L211.9,206.9z"/>
					<path d="M218.6,210.1c-0.8-1.9-1.2-4-1.3-4.9c0.8-0.5,1.5-1,2-1.7c-0.7-0.4-2-1-3.3-1.6c-0.6,0.5-1.1,1.1-1.5,2
						c-0.3,0.8-0.6,1.7-0.8,2.5c0.6-0.1,1.1-0.3,1.7-0.5c0.2,1.1,0.6,3,1.3,4.8l0.1,0.2c1,2.4,1.8,5.2-1.2,6.9
						c-0.4,0.3-0.6,0.8-0.3,1.3c0.2,0.3,0.5,0.5,0.8,0.5c0.2,0,0.3,0,0.5-0.1C221.3,216.8,219.3,212,218.6,210.1L218.6,210.1z"/>
					<path d="M215.9,196c3.7-2.3,4.4-6.3,4.5-6.5c0.1-0.5-0.2-1-0.8-1.1c-0.5-0.1-1,0.2-1.1,0.8c0,0.2-0.8,4.2-4.7,5.9
						c-0.4-0.2-0.7-0.3-0.9-0.4l0,0c3.7-2.3,3.8-7.1,3.8-7.4c0-0.5-0.4-0.8-0.9-0.8l0,0c-0.5,0-0.9,0.3-0.9,0.8c0,0.2-0.1,5-3.9,6.3
						c-0.1,0-0.1,0-0.1,0c-0.2-0.1-0.4-0.2-0.5-0.3c-2.7-1.7-26.6-12.8-52.3-12.8c-18.8,0-40.8,5-53.9,8c-6.1,1.4-10.1,2.3-11.8,2.3
						c-2.4,0-6.7-1.7-12.1-3.8c-0.2-0.1-0.3-0.1-0.5-0.2c-0.7,1-1.5,2.4-1.5,3.2c0,0.7,0.3,1.5,0.5,2.3c0.3,0.8,0.5,1.6,0.5,2.3
						c0,0.8-0.5,1.6-1,2.4c-0.5,0.9-1.1,1.8-1.1,2.7c0,1.2,0.6,2.5,0.9,3.1c0.9-0.3,1.8-0.4,2.7-0.7c4.2-1.2,7.2-1.9,8.6-1.9
						c4.5,0.2,17.4,3.9,17.4,3.9c2.8,0.7,5.9,1.2,9.3,2c12.2,3.1,26,6.6,33.6,8.1c3.8,0.8,7.8,1.2,11.9,1.4l0,0l0,0
						c12.8,0.7,25.2-0.8,29-1.8c1-0.3,2-0.7,3.1-1.1c-2.5-2.3-8-7.7-8-11.4c0-4.9,6-6.7,6.2-6.8c0.5-0.1,1,0.1,1.2,0.6
						c0.1,0.5-0.1,1-0.6,1.2c0,0-4.9,1.5-4.9,5c0,2.9,5.4,8.3,8,10.6c1.6-0.7,3.3-1.5,4.8-2.2c2.8-1.3,4.4-2.1,5.4-2.2
						c0.3-0.1,0.9-0.1,1.7-0.2c1.1-0.1,2.8-0.3,4.5-0.6c0.3-1.2,0.6-2.4,1-3.6c1.2-3.1,3.9-4,5.6-4.6c0.4-0.1,1-0.3,1.3-0.5
						C219.3,197.8,217.6,196.9,215.9,196z M124.2,192.3c0,0-25.9,3.2-29.4,3.2c-0.1,0-0.1,0-0.2,0c-0.5,0-0.9-0.4-0.9-0.9
						s0.4-0.9,0.9-0.9c0.1,0,0.1,0,0.2,0c3.3,0,29.1-3.5,29.1-3.5c26.5-4,48.6,1,48.8,1.1c0.5,0.1,0.8,0.6,0.7,1.1s-0.6,0.9-1.1,0.8
						C172.1,193.2,150.3,188.3,124.2,192.3z M181.6,207.6c-0.2,0.1-5.9,2.4-8.9,2.7c-0.1,0-0.2,0-0.3,0c-1.6,0-3.4-0.9-4.9-2.6
						c-2-2.1-3.1-4.8-2.8-7.1c0.1-0.8,0.5-1.3,1.2-1.6c3.2-1.5,13,4.6,15.9,6.6c0.3,0.2,0.5,0.6,0.4,1
						C182.2,207,182,207.5,181.6,207.6z M207.2,196.3c-0.9,0-1.6,0.7-1.6,1.6c0,0.7,0.4,1.2,1,1.5c-0.3,0.1-0.6,0.1-0.9,0.1
						c-1.4,0-2.5-1-2.5-2.2s1.1-2.2,2.5-2.2c1.1,0,2,0.6,2.4,1.4C207.8,196.4,207.5,196.3,207.2,196.3z"/>
					<circle class="st3" cx="91.6" cy="247.2" r="5.5"/>
					<circle class="st3" cx="70.1" cy="236.2" r="5.5"/>
					<circle class="st3" cx="68.1" cy="248.7" r="4.7"/>
					<circle class="st3" cx="88.3" cy="234.2" r="4.7"/>
					<circle class="st3" cx="79.6" cy="241.7" r="4"/>
					<circle class="st3" cx="78.9" cy="251.2" r="4"/>
				</g>
			</g>
			<g>
				<polygon id="infoBox2_1_" class="st8" points="207.1,541.6 381.8,541.6 401.2,554 419.5,541.6 595.2,541.6 595.2,384.9 
					207.1,384.9 				"/>
				<text transform="matrix(1 0 0 1 220.5002 422.4261)" class="st0 st10">Bacteriën zetten de ammonia om</text>
				<text transform="matrix(1 0 0 1 220.5002 451.2261)" class="st0 st10">in voedingsstoffen voor planten</text>
				<text transform="matrix(1 0 0 1 227.5002 482.2278)" class="st0 st11">Er zitten </text>
				<text transform="matrix(1 0 0 1 285.6002 482.2278)" class="st12 st11">gemiddeld</text>
				<text transform="matrix(1 0 0 1 227.5002 499.0278)" class="st0 st11">aantal nitrieten en</text>
				<text transform="matrix(1 0 0 1 227.5002 515.8278)" class="st0 st11">nitraten in het water</text>
				<g>
					<path d="M498.1,480.8l-6.2,0.7c-1.9,0.2-3.7-1.2-3.9-3.1l0,0c-0.2-1.9,1.2-3.7,3.1-3.9l6.2-0.7c1.9-0.2,3.7,1.2,3.9,3.1l0,0
						C501.4,478.8,500.1,480.6,498.1,480.8z"/>
					<path d="M511.6,478l-5.9,1.8c-1.8,0.6-3.8-0.5-4.4-2.3l0,0c-0.6-1.8,0.5-3.8,2.3-4.4l5.9-1.8c1.8-0.6,3.8,0.5,4.4,2.3l0,0
						C514.5,475.5,513.5,477.4,511.6,478z"/>
					<path d="M475.3,479.1L469,479c-1.9,0-3.5-1.7-3.4-3.6l0,0c0-1.9,1.7-3.5,3.6-3.4l6.2,0.1c1.9,0,3.5,1.7,3.4,3.6l0,0
						C478.8,477.7,477.2,479.2,475.3,479.1z"/>
					<path d="M523.5,477.7l-6.2-0.4c-1.9-0.1-3.4-1.8-3.3-3.7l0,0c0.1-1.9,1.8-3.4,3.7-3.3l6.2,0.4c1.9,0.1,3.4,1.8,3.3,3.7l0,0
						C527.1,476.4,525.5,477.9,523.5,477.7z"/>
					<path d="M445,506.5l5.7,2.4c1.8,0.7,2.6,2.8,1.9,4.6l0,0c-0.7,1.8-2.8,2.6-4.6,1.9l-5.7-2.4c-1.8-0.7-2.6-2.8-1.9-4.6l0,0
						C441.2,506.6,443.2,505.7,445,506.5z"/>
					<path d="M495.7,523.9l6.2-0.3c1.9-0.1,3.6,1.4,3.7,3.3l0,0c0.1,1.9-1.4,3.6-3.3,3.7l-6.2,0.3c-1.9,0.1-3.6-1.4-3.7-3.3l0,0
						C492.2,525.7,493.7,524,495.7,523.9z"/>
					<path d="M431.9,502.3l6.1,1.3c1.9,0.4,3.1,2.3,2.7,4.2l0,0c-0.4,1.9-2.3,3.1-4.2,2.7l-6.1-1.3c-1.9-0.4-3.1-2.3-2.7-4.2l0,0
						C428.1,503.1,430,501.9,431.9,502.3z"/>
					<path d="M418.7,499.5l6.1,1.1c1.9,0.3,3.2,2.2,2.8,4l0,0c-0.3,1.9-2.2,3.2-4,2.8l-6.1-1.1c-1.9-0.3-3.2-2.2-2.8-4l0,0
						C415,500.5,416.8,499.2,418.7,499.5z"/>
					<path d="M492,509.1l-5.9-2.1c-1.8-0.6-2.8-2.6-2.1-4.5l0,0c0.6-1.8,2.6-2.8,4.5-2.1l5.9,2.1c1.8,0.6,2.8,2.6,2.1,4.5l0,0
						C495.8,508.8,493.8,509.8,492,509.1z"/>
					<path d="M506.5,510.2l-6.2,0.5c-1.9,0.2-3.6-1.3-3.8-3.2l0,0c-0.2-1.9,1.3-3.6,3.2-3.8l6.2-0.5c1.9-0.2,3.6,1.3,3.8,3.2l0,0
						C509.9,508.3,508.4,510,506.5,510.2z"/>
					<path d="M434.1,478.6l6,1.8c1.8,0.5,2.9,2.5,2.4,4.3l0,0c-0.5,1.8-2.5,2.9-4.3,2.4l-6-1.8c-1.8-0.5-2.9-2.5-2.4-4.3l0,0
						C430.3,479.1,432.3,478.1,434.1,478.6z"/>
					<path d="M419.6,478.3l6.1-0.9c1.9-0.3,3.7,1.1,3.9,3l0,0c0.3,1.9-1.1,3.7-3,3.9l-6.1,0.9c-1.9,0.3-3.7-1.1-3.9-3l0,0
						C416.3,480.3,417.7,478.6,419.6,478.3z"/>
					<circle class="st3" cx="519" cy="511.5" r="2.1"/>
					<circle class="st3" cx="468" cy="516.6" r="3"/>
					<circle class="st3" cx="470.1" cy="499.4" r="2.1"/>
					<circle class="st3" cx="448.4" cy="470.4" r="3.3"/>
					<circle class="st3" cx="488.1" cy="469.3" r="1.9"/>
					<circle class="st3" cx="539.2" cy="493.3" r="4"/>
					<circle class="st3" cx="428.6" cy="494.6" r="1.3"/>
					<circle class="st3" cx="425.5" cy="522.6" r="2.3"/>
					<circle class="st3" cx="461.9" cy="487.2" r="1.4"/>
					<circle class="st3" cx="545.7" cy="513.6" r="2.5"/>
				</g>
			</g>
			<g>
				<polygon id="infoBox4" class="st8" points="799.1,210.1 973.8,210.1 993.2,222.5 1011.5,210.1 1187.2,210.1 1187.2,53.3 
					799.1,53.3 				"/>
				<rect x="816.8" y="148" class="st13" width="33.2" height="18.8"/>
				<line class="st14" x1="816.7" y1="148" x2="1169.7" y2="148"/>
				<line class="st14" x1="816.8" y1="166.8" x2="1169.8" y2="166.8"/>
				<text transform="matrix(1 0 0 1 816.704 91.4002)" class="st0 st10">Het water met voedingsstoffen </text>
				<text transform="matrix(1 0 0 1 816.704 120.2002)" class="st0 st10">wordt naar de planten gepompt</text>
				<text transform="matrix(1 0 0 1 816.8124 192.0519)" class="st0 st11">Op dit moment </text>
				<text transform="matrix(1 0 0 1 917.1123 192.0519)" class="st12 st11">5</text>
				<text transform="matrix(1 0 0 1 924.9124 192.0519)" class="st0 st11"> liter per minuut</text>
			</g>
			<g>
				<polygon id="infoBox5" class="st8" points="1020.5,322.6 1195.2,322.6 1214.5,335 1232.9,322.6 1408.6,322.6 1408.6,165.8 
					1020.5,165.8 				"/>
				<text transform="matrix(1 0 0 1 1043.6691 200.0002)" class="st0 st10">Om de drie dagen wordt de </text>
				<text transform="matrix(1 0 0 1 1043.6691 228.8002)" class="st0 st10">sla geoogst</text>
				<text transform="matrix(1 0 0 1 1042.2737 270)" class="st0 st11">14 mei is er </text>
				<text transform="matrix(1 0 0 1 1116.8737 270)" class="st12 st11">5,1</text>
				<text transform="matrix(1 0 0 1 1135.8737 270)" class="st0 st11"> kg sla geoogst. </text>
				<text transform="matrix(1 0 0 1 1042.2737 286.8)" class="st0 st11">Ongeveer </text>
				<text transform="matrix(1 0 0 1 1107.0737 286.8)" class="st12 st11">14</text>
				<text transform="matrix(1 0 0 1 1122.8737 286.8)" class="st0 st11"> kroppen sla.</text>
				<g>
					<path d="M1291.5,263.2v1.8c0,0.3,0.1,0.5,0.4,0.8s0.7,0.6,1.2,0.8c1.1,0.5,2.6,0.8,4.3,0.8h39.1c1.7,0,3.2-0.3,4.3-0.8
						c0.5-0.2,1-0.5,1.2-0.8c0.3-0.3,0.4-0.5,0.4-0.8v-1.8C1342.3,263.2,1291.5,263.2,1291.5,263.2z"/>
					<rect x="1314.4" y="268.4" width="5.1" height="5.8"/>
					<path d="M1304.7,275.2c-3.3,0-5.9,2.6-5.9,5.8v23.3h36.2V281c0-3.2-2.6-5.8-5.9-5.8H1304.7L1304.7,275.2z M1316.9,279.6
						c2.6,0,5.3,1,7.3,3c4,4,4,10.5,0,14.6c-4,4-10.6,4-14.6,0s-4-10.5,0-14.6C1311.7,280.6,1314.3,279.6,1316.9,279.6L1316.9,279.6
						z"/>
					<path d="M1316.9,280.6c-2.4,0-4.8,0.9-6.6,2.7c-3.6,3.6-3.7,9.5,0,13.1c3.6,3.6,9.5,3.6,13.2,0c3.6-3.6,3.6-9.4,0-13.1
						C1321.7,281.5,1319.3,280.6,1316.9,280.6L1316.9,280.6z M1312.8,285.2c0.1,0,0.1,0,0.2,0c0.3,0,0.6,0.1,0.8,0.3l2.7,2.7
						c0.7-0.1,1.4,0,1.9,0.6c0.8,0.8,0.8,2.1,0,3c-0.8,0.8-2.2,0.8-3,0c-0.5-0.5-0.7-1.2-0.6-1.9l-2.7-2.7c-0.5-0.5-0.5-1.2,0-1.7
						C1312.4,285.3,1312.6,285.2,1312.8,285.2L1312.8,285.2z"/>
				</g>
				<g>
					<path class="st15" d="M1301.9,222.9c0.9-0.3,1.4-0.7,1.9-1c0.3-0.2,0.7-0.4,1.1-0.7c0.2-0.1,0.6-0.1,0.8,0
						c0.2,0.1,0.4,0.3,0.5,0.6c1.7-0.7,9-2.8,16.2,2.6c0.3-0.2,0.7-0.2,1.2-0.1l0.5,0.1l0.2,0.4c0.2,0.7,1.1,1.5,2.2,2.4
						c0.8,0.7,1.8,1.5,2.8,2.5c1.6,1.7,3.5,4.7,4.5,8.2c0.9-0.8,1.5-1.7,1.6-2.6c0.1-0.6,0-1.1-0.2-1.7c-0.2-0.6-0.3-1.2-0.4-2.1
						c-0.1-0.9,0.2-1.8,0.3-2.7c0.2-0.8,0.4-1.8,0.2-2.3c-0.2-0.4-0.7-0.8-1.3-1.4c-0.7-0.6-1.6-1.4-2.4-2.4
						c-1.1-1.4-1.3-3.1-1.5-4.4c-0.1-0.7-0.2-1.4-0.4-1.7c-0.7-1-2.4-2-4.3-1.9c-1.6,0.1-2.6-0.4-3.6-1c-0.6-0.3-1.2-0.7-2-0.9
						c-2.6-0.9-7.7,0.2-9.3,0.5c-2.1,0.5-2.8,1.3-3.3,2.2c-0.2,0.2-0.2,0.3-0.4,0.6c-1,1.1-3.3,2.8-6.1,2.8c-1.6,0-4.3,4.8-5.4,6.6
						c-0.2,0.3-0.4,0.7-0.5,0.9c-0.4,0.7-0.4,1.3-0.3,1.8C1297.1,224.7,1300.3,223.5,1301.9,222.9z"/>
					<path class="st16" d="M1307.4,223.2c0.1,0.1,0.2,0.1,0.2,0.2c0.4,0.3,0.9,0.7,1.2,1.1c0.2,0.2,0.5,0.2,1.1,0.2
						c0.6-0.1,1.4-0.2,2.2,0.4c0.9,0.7,1.1,1.9,1.4,3c0.2,0.7,0.2,1.5,0.6,1.9c0.2,0.3,0.7,0.4,1.1,0.6c0.2,0.1,0.7,0.2,1,0.3
						c0.1-0.1,0.2-0.2,0.4-0.3c0.7-0.3,1.2-0.6,1.7-0.8c0.7-0.3,1.5-0.6,2-1.1c0.7-0.7,0.7-0.8,0.7-1.3c0-0.2,0-0.5,0-0.7
						c0.1-0.3,0.2-0.6,0.2-0.8C1315.5,221.4,1309.6,222.6,1307.4,223.2z"/>
					<path class="st15" d="M1291.4,236.6c0-0.1,0-0.1,0-0.2c-0.1-5.9-4.6-9-4.7-9c-0.4-0.2-0.5-0.7-0.2-1.1c0.2-0.4,0.7-0.5,1.1-0.2
						c0.2,0.1,3.3,2.2,4.6,6.3c0.2-0.7,0.6-1.4,0.9-2.1c-0.3-0.6-1.1-2.4,0-4.3c0.2-0.2,0.3-0.6,0.5-0.9c2.1-3.7,4.4-7.5,6.8-7.5
						c2,0,4.1-1.3,4.9-2.3c0.2-0.2,0.2-0.3,0.3-0.5s0.2-0.3,0.4-0.5c-0.2-0.4-0.8-0.9-1.8-0.6c-1.1,0.4-1.8,0.9-2.6,1.5
						c-0.8,0.7-1.8,1.4-3.3,2c-2,0.7-2.8,0.6-4.1,0.3c-0.7-0.2-1.5-0.3-2.8-0.3c-3.1,0-6.8,2.4-9.4,5.9c-1.4,1.9-0.7,4.4,0.1,6.6
						c0.8,2.3,0.4,5.1-0.4,6.8c-0.7,1.5-0.7,2.9-0.3,3.2c0.7,0.4,1.1,1.1,1.1,1.8c1.5-0.6,2.9-0.8,3.9-1.1l0.4-0.1
						c1.5-0.3,2.9,0.4,4.2,1c0.2,0.1,0.4,0.2,0.7,0.2C1291.4,240.7,1291.2,238.8,1291.4,236.6z"/>
					<path class="st15" d="M1334.1,245.9c0.6-0.3,1.5-0.9,2.1-1.4c1.3-0.8,2.7-1.8,4-2.4c2.9-1.3,5.5-0.3,6.4,0.6
						c0.2,0.2,0.3,0.3,0.4,0.5l0.1,0.1c0.9-0.8,2.2-2.3,2.2-3.5c0-0.8-0.4-1.9-0.7-2.8c-0.2-0.5-0.3-0.9-0.5-1.3
						c-0.2-0.7-0.1-1.5,0.1-2.4c0.2-1.1,0.3-2.5,0-3.5c-0.7-1.6-1.7-2.6-3.6-3.2c-0.4-0.2-0.8-0.2-1.1-0.3c-1.4-0.4-2.5-0.7-3.7-2.4
						c-1.5-2-2.6-3.3-4.1-3.7c-1-0.2-2.5,0.1-3.6,0.3c0.2,0.5,0.4,1.1,0.7,1.5c0.7,1,1.5,1.6,2.2,2.2c0.8,0.7,1.5,1.2,1.8,2
						c0.3,0.9,0.1,2-0.2,3.1c-0.2,0.8-0.3,1.6-0.3,2.3s0.2,1.2,0.3,1.7c0.2,0.7,0.4,1.5,0.2,2.4c-0.3,1.5-1.2,2.8-2.8,4.1
						C1334.3,241.8,1334.4,243.9,1334.1,245.9z"/>
					<path class="st16" d="M1316.4,236.8c-0.5-1.1-1.1-2.8-1-4.2c0-0.1-0.1-0.2-0.1-0.2c0-0.1,0-0.1,0-0.1c-0.1-0.1-0.3-0.2-0.6-0.2
						c-0.6-0.2-1.4-0.3-2-1.1c-0.6-0.7-0.7-1.6-0.9-2.5c-0.2-0.8-0.3-1.7-0.7-2c-0.3-0.2-0.6-0.2-1.1-0.2c-0.7,0.1-1.5,0.2-2.4-0.7
						c-0.3-0.3-0.7-0.7-1.1-0.9c-0.7-0.5-1.2-1-1.6-1.5c-0.1,0.1-0.2,0.2-0.3,0.2c-0.5,0.3-1.1,0.7-2.2,1.1
						c-1.6,0.6-4.6,1.7-7.2,5.6c-3.2,4.6-2.2,10.2-1.7,12c0.3-0.2,0.7-0.3,1-0.6c0.8-0.5,1.7-1.1,2.7-0.9h0.4
						c1.6,0.2,3.5,0.3,4.6,1.9c0.7,0.9,1.1,1,1.6,1.1h0.1c0.7,0.2,1.7,0.7,2.9,1.3l0.5,0.2c0.9,0.4,1,1.5,1.1,2.4
						c0,0.2,0.1,0.7,0.2,0.9c0.1,0,0.2,0,0.2-0.1c0.4-0.2,1.1-0.4,2.2,0c1,0.3,1.4,1.1,1.6,1.6s0.3,0.7,0.7,0.7
						c0.2,0.1,0.5,0.1,0.8,0c-0.9-1.2-2.2-3.3-2.1-5.2c0-3.3,1.5-4.6,3.1-5.8C1316.8,238.4,1316.7,237.4,1316.4,236.8z
						 M1300.2,233.3c-0.2,0.1-4.6,1.7-4.6,6.3c0,0.4-0.4,0.9-0.8,0.9c-0.5,0-0.8-0.5-0.8-1c0.1-5.8,5.7-7.8,5.7-7.8
						c0.4-0.2,0.9,0.1,1.1,0.5C1300.9,232.6,1300.6,233.1,1300.2,233.3z"/>
					<path class="st16" d="M1323.8,251.6c0.2-0.2,0.6-0.9,0.8-1.5c0.7-1.4,1.5-3,3-3.4c0.6-0.2,1-0.2,1.3-0.2
						c0.1-0.6,0.2-1.1,0.2-1.5c-1-3.9-4.7-4.9-4.8-4.9c-0.4-0.1-0.7-0.6-0.6-1s0.6-0.7,1-0.6c0.2,0,2.6,0.7,4.5,2.8
						c-0.6-5.9-3.9-8.3-4.1-8.4c-0.4-0.2-0.5-0.7-0.2-1.1c0.2-0.4,0.7-0.5,1.1-0.2c0.2,0.2,5.5,3.8,4.8,13.3c0,0.2,0,0.2,0,0.3
						c-0.1,0.5-0.1,1.1-0.2,1.5c0.1,0,0.1,0,0.2,0c0.7-0.1,0.9-0.2,1.1-0.4c0.1-0.1,0.2-0.1,0.3-0.2c1.5-6.2-1.7-12.6-4.3-15.4
						c-0.9-0.9-1.8-1.7-2.6-2.4c-1.1-0.9-2-1.6-2.5-2.6c-0.1,0.1-0.2,0.3-0.2,0.7c0,0.2,0,0.3,0,0.5c0,0.8-0.1,1.5-1.1,2.5
						c-0.8,0.8-1.7,1.1-2.6,1.5c-0.5,0.2-1,0.4-1.5,0.7c-0.6,0.3-0.3,2.2,0.6,4.2c1.1,2.5-1.2,4.5-2,5c-1.6,1.4-2.5,2.2-2.6,4.4
						c-0.1,1.6,1.5,3.9,2.4,4.9c1-0.1,2-0.2,3.2,0.2c1.1,0.3,1.6,1.1,2.1,2c0.1,0,0.1,0,0.2,0C1321.6,252.8,1323,252.5,1323.8,251.6
						z"/>
					<path class="st15" d="M1326.7,259.7c-0.2-0.2-0.4-0.4-0.7-0.7c-0.7-1-1.6-2-3.1-2.1c-1.6-0.1-2.4-1.5-3-2.6
						c-0.5-0.9-0.9-1.7-1.7-2c-1.1-0.4-2.3-0.2-3.3-0.1c-0.8,0.2-1.6,0.2-2.4,0.1c-1.1-0.2-1.5-1-1.8-1.5c-0.2-0.5-0.4-0.7-0.7-0.8
						c-0.5-0.2-0.8-0.1-1.1,0c-0.4,0.2-1.1,0.3-1.7-0.2s-0.7-1.3-0.7-2.1c0-0.4-0.1-1-0.2-1.1l-0.4-0.2c-0.7-0.4-2.1-1.1-2.5-1.1
						h-0.1c-0.7-0.2-1.6-0.3-2.6-1.8c-0.6-0.8-2-1-3.3-1.1h-0.4c-0.5,0-1.1,0.3-1.6,0.7c-0.9,0.6-2,1.2-3.3,0.8
						c-0.5-0.2-1.1-0.4-1.5-0.7c-1.1-0.5-2.3-1.1-3.3-0.9l-0.4,0.1c-1.7,0.3-5,1-6.3,2.7c-2,2.1-1.8,2.8-1.4,3.4
						c0,0.1,0.1,0.1,0.1,0.2c0.1,0,0.2-0.1,0.3-0.1c0.5-0.2,1.2-0.4,2.3-0.3c2.4,0.2,7.2,3.7,9.2,6.3c1.8,2.4,3.8,4.9,5.7,5.4
						c0.3,0.1,0.7,0.2,0.9,0.3c-0.1-0.5-0.1-1.1-0.1-1.6c-0.2-0.7-1.4-6.6-6.5-10c-0.4-0.2-0.5-0.7-0.2-1.1c0.2-0.4,0.7-0.5,1.1-0.2
						c3.3,2.2,5.1,5.2,6.1,7.6c0.2-0.5,0.2-1,0.5-1.5c1.5-4.1,0-7.6,0-7.7c-0.2-0.4,0-0.9,0.4-1.1c0.4-0.2,0.9,0,1.1,0.4
						c0.1,0.2,1.8,4.1,0,8.9c-1.5,3.8-0.7,7.1-0.5,7.7c0.2,0.2,0.2,0.5,0.4,0.7c0.5,0.9,1.8,1.7,4,1.2c0.3-0.2,1.9-0.7,3.6-0.7
						c1,0,2.1,0.2,3.1,0.8c2.5,1.5,4.7,2.8,8.2,2.8c3.7,0,6.9-1.1,8.1-2.3C1327.8,263,1327.3,260.5,1326.7,259.7z M1304,255.3
						c0.1-0.1,2.8-2.1,7.7-2.4c0.5,0,0.8,0.3,0.8,0.8s-0.3,0.8-0.8,0.8c-4.5,0.2-6.8,2-6.8,2c-0.2,0.1-0.3,0.2-0.5,0.2
						s-0.5-0.1-0.7-0.3C1303.6,256.1,1303.6,255.6,1304,255.3z M1317.7,260.7c-0.2,0.3-0.4,0.5-0.7,0.5c-0.1,0-0.2,0-0.3-0.1
						c-6.8-2.8-12.6-0.7-12.6-0.7c-0.4,0.2-0.9,0-1.1-0.5c-0.2-0.4,0-0.9,0.5-1.1c0.2-0.1,6.5-2.5,13.8,0.7
						C1317.7,259.8,1317.9,260.3,1317.7,260.7z"/>
					<path class="st15" d="M1349.9,248.5c-0.1-0.2-0.2-0.7-0.2-0.9c-0.3-1.1-0.6-2.1-1.1-2.1l0,0c-0.6,0-1.1-0.1-1.5-0.2
						s-0.7-0.3-1-0.6c-0.2-0.2-0.3-0.3-0.5-0.5c-0.1-0.2-0.2-0.2-0.3-0.3c-0.5-0.5-2.4-1.2-4.6-0.2c-1.1,0.5-2.5,1.5-3.7,2.3
						c-1.9,1.2-2.9,1.9-3.7,1.9c-0.2,0-0.2,0-0.3,0l0,0c-0.1,0-0.2,0.1-0.2,0.2c-0.3,0.2-0.7,0.4-1.7,0.6s-1.5,0-1.9-0.2
						c-0.3-0.1-0.5-0.2-1.1,0c-0.7,0.2-1.5,1.5-2,2.5c-0.3,0.7-0.7,1.4-1.1,1.8c-0.7,0.8-2,1.5-3.1,1.6c0.4,0.6,0.7,1,1.2,1
						c2.3,0.2,3.5,1.7,4.3,2.8c0.2,0.2,0.3,0.4,0.5,0.6c0.3,0.3,0.6,0.8,0.7,1.4c6.8-1.6,7.9-7.3,8-7.6c0.1-0.4,0.5-0.7,0.9-0.7
						c0.4,0.1,0.7,0.5,0.7,0.9c0,0.1-1.2,7.1-9.3,8.9c0,0.1,0,0.2,0,0.3c0.7,0.1,2.1,0.1,3.8-0.4c2.8-0.8,5-3.6,6.1-5.2
						c1.3-2,3.5-4.6,4.9-5.5c1.2-0.8,3.8-1.2,4.9,0c0.1,0,0.1,0,0.3-0.1C1349.5,250.3,1350.1,249,1349.9,248.5z"/>
				</g>
			</g>
			<g>
				<polygon id="infoBox6" class="st8" points="825.5,471.6 1000.2,471.6 1019.5,484 1037.9,471.6 1213.6,471.6 1213.6,314.9 
					825.5,314.9 				"/>
				<circle class="st13" cx="865" cy="442" r="7.4"/>
				<circle class="st13" cx="857.6" cy="422.4" r="7.4"/>
				<circle class="st13" cx="902.2" cy="447.4" r="7.4"/>
				<circle class="st13" cx="887.4" cy="427.7" r="7.4"/>
				<g>
					<g>
						<line class="st17" x1="841.8" y1="403.5" x2="844.3" y2="403.5"/>
						<line class="st18" x1="849.5" y1="403.5" x2="919.2" y2="403.5"/>
						<line class="st17" x1="921.8" y1="403.5" x2="924.3" y2="403.5"/>
					</g>
				</g>
				<rect x="841.8" y="322.4" class="st13" width="82.5" height="42.2"/>
				<line class="st14" x1="924.3" y1="322.3" x2="924.3" y2="410.6"/>
				<line class="st14" x1="841.8" y1="322.3" x2="841.8" y2="409.6"/>
				<text transform="matrix(1 0 0 1 947.4622 348.2333)" class="st0 st10">Water wordt gefilterd </text>
				<text transform="matrix(1 0 0 1 947.4622 377.0333)" class="st0 st10">in de wortelen van </text>
				<text transform="matrix(1 0 0 1 947.4622 405.8333)" class="st0 st10">de planten</text>
				<text transform="matrix(1 0 0 1 947.4623 436.6627)" class="st0 st11">11 mei is dit water toegevoegd </text>
				<text transform="matrix(1 0 0 1 947.4623 453.4627)" class="st0 st11">bij de vissen</text>
			</g>
			<g>
				<polygon id="infoBox3_1_" class="st8" points="514.1,417.1 688.8,417.1 708.2,429.5 726.5,417.1 902.2,417.1 902.2,260.3 
					514.1,260.3 				"/>
				<text transform="matrix(1 0 0 1 535.1998 300.2095)" class="st19"><tspan x="0" y="0" class="st0 st10">Het residu in het water wordt </tspan><tspan x="0" y="28.8" class="st0 st10">opgegeten door wormen.</tspan></text>
				<text transform="matrix(1 0 0 1 535.1998 359.5001)" class="st19"><tspan x="0" y="0" class="st0 st11">De wormen zijn op dit moment druk bezig met </tspan><tspan x="0" y="16.8" class="st0 st11">het afbreken van organish afval</tspan><tspan x="0" y="33.6" class="st0 st11">Deze wormen worden aan de vissen gevoerd. </tspan></text>
			</g>
		</g>
	</g>
	<g id="Test">
		<path class="st13" d="M931.5-236.1c77,5.8,90.6,46.2,156.1,38.5c34.5-4,47.3-6.7,83.9-24.7c17.1-8.4,39.5-16.6,64.9-19.8
			c12.8-2.8,24.2-2.8,34.9-2c17.8,1.3,32.5,5.4,45.3,10.7c10.9,4,21.8,9.3,32.8,16.1c1.1,0.7,2.3,2.2,3.4,3.4
			c1.1,0.7,2.2,1.4,3.3,2.1c0.3-0.1,0.6-0.2,0.8-0.4c-0.2,0.2-0.4,0.4-0.6,0.6c22.1,13.6,42.8,28.3,75.4,24.5
			c34.5-4,43-25.1,79.6-43.1c40.1-19.7,108.9-38.1,177.9,5c2.5,1.6,5.3,7.1,7.6,5l48.4,211.5L142.8-2.4v-173
			c47.9-41.9,79.7-45,107-42.9c77,5.8,90.4,43.9,155.9,36.2c34.5-4,47.4-4.4,84.1-22.4c17.1-8.4,39.5-16.6,64.9-19.8
			c12.8-2.8,24.2-2.8,34.9-2c17.8,1.3,32.5,5.4,45.3,10.7c10.9,4,21.8,9.3,32.8,16.1c1.1,0.7,2.3,2.2,3.4,3.4
			c1.1,0.7,2.2,1.4,3.3,2.1c0.3-0.1,0.6-0.2,0.8-0.4c-0.2,0.2-0.4,0.4-0.6,0.6c22.1,13.6,46.5,10.5,79,6.7c34.5-4,39.4-7.3,76-25.3
			c8.7-7,27.1-20,54-24.8C904.3-241,921.4-238.4,931.5-236.1z"/>
		<path class="st20" d="M869.6-243.1c-220,3.4-400.5-11.4-620.5-7.9c-0.6,6.3-0.3,6.9-0.1,14.4c0.4,14.8,2.7,27.6,5.4,38
			c31.3,106.1,89.5,147,111,158c84.6,43.3,230.5,31,479-177.1L869.6-243.1z"/>
	</g>
	<rect x="1893.3" y="-531.6" class="st21" width="139.7" height="196.5"/>
	<line class="st22" x1="115.8" y1="-493" x2="1791.8" y2="-493"/>
	<line class="st23" x1="255.5" y1="-526.1" x2="255.5" y2="-470.3"/>
	<line class="st23" x1="395.2" y1="-526.1" x2="395.2" y2="-470.3"/>
	<line class="st23" x1="534.9" y1="-526.1" x2="534.9" y2="-470.3"/>
	<line class="st23" x1="674.6" y1="-526.1" x2="674.6" y2="-470.3"/>
	<line class="st23" x1="953.8" y1="-526.1" x2="953.8" y2="-470.3"/>
	<line class="st23" x1="1233.2" y1="-526.1" x2="1233.2" y2="-470.3"/>
	<line class="st23" x1="1512.6" y1="-526.1" x2="1512.6" y2="-470.3"/>
	<line class="st23" x1="1093.5" y1="-526.1" x2="1093.5" y2="-470.3"/>
	<line class="st23" x1="1372.9" y1="-526.1" x2="1372.9" y2="-470.3"/>
	<line class="st23" x1="1652.3" y1="-526.1" x2="1652.3" y2="-470.3"/>
	<line class="st23" x1="814.3" y1="-526.1" x2="814.3" y2="-470.3"/>
</g>
<g id="Laag_2_1_" class="st24">
	<path class="st25" d="M216.1,385.4c7.2-0.1,20.2,0.1,36.1,2.5c43.7,6.5,57.1,21.6,103.3,28c6.4,0.9,21,2.7,39.7,2.6
		c10.6-0.1,27.1-0.8,46.3-4.1c41.4-7.2,44.4-17.8,85-25c7.9-1.4,25.3-4.1,47.8-4.1c22.2,0.1,39.9,2.6,50.2,4.7
		c43.7,9.2,63.1,28.4,128.9,28.4c86.4,0,92.8-33.1,179.1-33.1c86.4,0,92.9,33.1,179.1,33.1c86.4,0,92.8-33.1,179.1-33.1
		c86.3,0,92.7,33.1,178.9,33.1c86.2,0,92.6-33.1,178.9-33.1s92.8,33.1,179.3,33.1c65.6,0,84.9-19.2,128.5-28.3
		c20.7-4.3,38.4-4.8,50.4-4.8c10.3,0,28.4,0.6,50.4,4.9c39.2,7.5,41.9,17.1,80.9,24.1c20.5,3.7,37.8,4.2,48.1,4.2
		c9.1,0,22.5-0.4,37.7-2.6c43.5-6.1,54.9-19.2,96-26.7c9.9-1.8,25.5-4,45.2-3.9c0,81,0,162.1,0,243.1H216.2L216.1,385.4L216.1,385.4
		z"/>
	<path class="st25" d="M216.1,385.4c5.6-0.1,15.7,0.1,28.2,2.5c34.1,6.5,44.6,21.6,80.5,28c5,0.9,16.4,2.7,31,2.6
		c8.3-0.1,21.2-0.8,36.1-4.1c32.3-7.2,34.6-17.8,66.3-25c6.1-1.4,19.7-4.1,37.3-4.1c17.3,0.1,31.1,2.6,39.2,4.7
		c34,9.2,49.2,28.4,100.6,28.4c67.4,0,72.4-33.1,139.7-33.1c67.4,0,72.4,33.1,139.7,33.1c67.4,0,72.4-33.1,139.7-33.1
		s72.3,33.1,139.5,33.1s72.2-33.1,139.5-33.1s72.4,33.1,139.9,33.1c51.1,0,66.2-19.2,100.2-28.3c16.1-4.3,29.9-4.8,39.3-4.8
		c8.1,0,22.1,0.6,39.3,4.9c30.6,7.5,32.7,17.1,63.1,24.1c16,3.7,29.5,4.2,37.5,4.2c7.1,0,17.5-0.4,29.4-2.6
		c33.9-6.1,42.8-19.2,74.9-26.7c7.7-1.8,19.9-4,35.3-3.9c0,81,0,162.1,0,243.1H216.5v-243H216.1z"/>
</g>
</svg>
