<?xml version="1.0" encoding="utf-8"?>
<!-- Generator: Adobe Illustrator 22.1.0, SVG Export Plug-In . SVG Version: 6.00 Build 0)  -->
<svg version="1.1" xmlns="http://www.w3.org/2000/svg" xmlns:xlink="http://www.w3.org/1999/xlink" x="0px" y="0px"
	 viewBox="0 0 1431.1 729" style="enable-background:new 0 0 1431.1 729;" xml:space="preserve">
<style type="text/css">
	.st0{fill:#29ABE2;}
	.st1{fill:none;stroke:#0071BC;stroke-width:5;stroke-miterlimit:10;}
	.st2{fill:#C69C6D;}
	.st3{fill:none;stroke:#A67C52;stroke-width:5;stroke-miterlimit:10;}
	.st4{fill:none;stroke:#333333;stroke-width:15;}
	.st5{fill:#F7931E;stroke:#FFFFFF;stroke-width:5;stroke-miterlimit:10;}
	.st6{fill:#333333;stroke:#FFFFFF;stroke-width:5;}
	.st7{fill:#FFFFFF;stroke:#333333;stroke-width:5.9687;stroke-miterlimit:10;}
</style>
<g id="water">
	<path class="st0" d="M803.2,408.5c-2.5,2.1-5.6-3.4-8.4-5c-76.4-43.1-152.7-24.7-197.1-5c-40.6,18-50,36.2-88.2,40.2
		c-72.6,7.7-92.4-48.2-177.7-54c-30.3-2.1-65.5,1-118.6,42.9C213.2,427.7,286.7,840.9,803.2,408.5z"/>
	<path class="st1" d="M803.2,408.9c-79.2-49.4-159.5-30.4-205.5-10c-40.6,18-50,36.2-88.2,40.2c-72.6,7.7-92.4-48.2-177.7-54
		c-30.3-2.1-66.8,1.6-119.9,43.5"/>
</g>
<g id="dirt">
	<path class="st2" d="M1210.1,463H1193l-29,12.1l-22.4-12l-61.3,23l-21.7-23l-59.3,7.5l-34.8-30.7L907,463.1
		c0,0,173,116.8,306.3,133l0,0L1210.1,463z"/>
	<polyline class="st3" points="908.6,463.1 966.1,439.9 1000.9,470.6 1060.2,463.1 1081.9,486.1 1143.2,463.1 1165.6,475.1 
		1194.6,463 1211.7,463 	"/>
</g>
<g id="infinity">
	<path id="motionPath_1_" class="st4" d="M808.3,380.7c-790.4-684.5-792.5,733.5,11.2,13.7c165.5-148.2,297.1-205.6,395-209.3
		c0,0,0,410.9,0,410.9S1046,581,838.8,404.7"/>
	<circle id="circlePath" class="st5" cx="744.7" cy="333.4" r="25"/>
</g>
<g id="info">
	<circle id="infoFeeding" class="st6" cx="594.2" cy="235" r="35"/>
	<circle id="infoFish" class="st6" cx="220.5" cy="335" r="35"/>
	<circle id="infoAmmonia" class="st6" cx="401.2" cy="604" r="35"/>
	<circle id="infoWorms" class="st6" cx="708.2" cy="480" r="35"/>
	<circle id="infoBacteria" class="st6" cx="993.2" cy="265" r="35"/>
	<circle id="infoPlantGrowth" class="st6" cx="1214.5" cy="394.5" r="35"/>
	<circle id="infoFishFood" class="st6" cx="1019.5" cy="534" r="35"/>
</g>
<g id="infoBox">
	<polygon id="infoBox_1_" class="st7" points="400.1,171.5 574.8,171.5 594.2,183.9 612.5,171.5 788.2,171.5 788.2,14.7 400.1,14.7 
			"/>
	<polygon id="infoBox1_1_" class="st7" points="26.4,272.1 201.2,272.1 220.5,284.5 238.8,272.1 414.6,272.1 414.6,115.4 
		26.4,115.4 	"/>
	<polygon id="infoBox2_1_" class="st7" points="207.1,541.6 381.8,541.6 401.2,554 419.5,541.6 595.2,541.6 595.2,384.9 
		207.1,384.9 	"/>
	<polygon id="infoBox3_1_" class="st7" points="514.1,417.1 688.8,417.1 708.2,429.5 726.5,417.1 902.2,417.1 902.2,260.3 
		514.1,260.3 	"/>
	<polygon id="infoBox4" class="st7" points="799.1,210.1 973.8,210.1 993.2,222.5 1011.5,210.1 1187.2,210.1 1187.2,53.3 
		799.1,53.3 	"/>
	<polygon id="infoBox5" class="st7" points="1020.5,322.6 1195.2,322.6 1214.5,335 1232.9,322.6 1408.6,322.6 1408.6,165.8 
		1020.5,165.8 	"/>
	<polygon id="infoBox6" class="st7" points="825.5,471.6 1000.2,471.6 1019.5,484 1037.9,471.6 1213.6,471.6 1213.6,314.9 
		825.5,314.9 	"/>
</g>
</svg>
