<?xml version="1.0" encoding="utf-8"?>
<!-- Generator: Adobe Illustrator 22.1.0, SVG Export Plug-In . SVG Version: 6.00 Build 0)  -->
<svg version="1.1" id="Laag_1" xmlns="http://www.w3.org/2000/svg" xmlns:xlink="http://www.w3.org/1999/xlink" x="0px" y="0px"
	 viewBox="0 0 100 125" style="enable-background:new 0 0 100 125;" xml:space="preserve">
<style type="text/css">
	.st0{fill:#44AF69;}
	.st1{opacity:0.6;fill:#44AF69;}
</style>
<path class="st0" d="M35,31.3c1.1-0.4,1.7-0.8,2.3-1.2c0.4-0.3,0.8-0.5,1.3-0.8c0.3-0.1,0.7-0.1,1,0s0.5,0.4,0.6,0.7
	c2.1-0.8,11.1-3.4,19.9,3.2c0.4-0.2,0.9-0.2,1.5-0.1l0.6,0.1l0.2,0.5c0.2,0.9,1.4,1.8,2.7,2.9c1,0.9,2.2,1.8,3.4,3.1
	c2,2.1,4.3,5.8,5.5,10.1c1.1-1,1.8-2.1,2-3.2c0.1-0.7,0-1.3-0.3-2.1c-0.2-0.7-0.4-1.5-0.5-2.6s0.2-2.2,0.4-3.3
	c0.2-1,0.5-2.2,0.3-2.8c-0.2-0.5-0.8-1-1.6-1.7c-0.9-0.7-2-1.7-3-3c-1.3-1.7-1.6-3.8-1.9-5.4c-0.1-0.9-0.3-1.7-0.5-2.1
	c-0.8-1.2-2.9-2.4-5.3-2.3c-2,0.1-3.2-0.5-4.4-1.2c-0.7-0.4-1.5-0.8-2.5-1.1c-3.2-1.1-9.5,0.2-11.4,0.6c-2.6,0.6-3.4,1.6-4.1,2.7
	c-0.2,0.2-0.3,0.4-0.5,0.7c-1.2,1.4-4.1,3.5-7.5,3.5c-2,0-5.3,5.9-6.6,8.1c-0.2,0.4-0.5,0.8-0.6,1.1c-0.5,0.8-0.5,1.6-0.4,2.2
	C29.1,33.5,33.1,32,35,31.3z"/>
<path class="st1" d="M41.8,31.7c0.1,0.1,0.2,0.1,0.3,0.2c0.5,0.4,1.1,0.8,1.5,1.3c0.3,0.3,0.6,0.3,1.3,0.3c0.7-0.1,1.7-0.2,2.7,0.5
	c1.1,0.8,1.4,2.3,1.7,3.7c0.2,0.9,0.3,1.8,0.7,2.3c0.3,0.4,0.8,0.5,1.3,0.7c0.3,0.1,0.8,0.2,1.2,0.4c0.1-0.1,0.3-0.3,0.5-0.4
	c0.8-0.4,1.5-0.7,2.1-1c0.9-0.4,1.8-0.7,2.5-1.4c0.8-0.8,0.8-1,0.8-1.6c0-0.3,0-0.6,0-0.9c0.1-0.4,0.2-0.7,0.3-1
	C51.8,29.5,44.5,30.9,41.8,31.7z"/>
<path class="st0" d="M22.1,48.2c0-0.1,0-0.1,0-0.2c-0.1-7.3-5.7-11.1-5.8-11.1c-0.5-0.3-0.6-0.9-0.3-1.4s0.9-0.6,1.4-0.3
	c0.2,0.1,4,2.7,5.7,7.7c0.3-0.9,0.7-1.7,1.1-2.6c-0.4-0.7-1.4-2.9,0-5.3c0.2-0.3,0.4-0.7,0.6-1.1c2.6-4.6,5.4-9.2,8.3-9.2
	c2.5,0,5-1.6,6-2.8c0.2-0.2,0.3-0.4,0.4-0.6c0.1-0.2,0.3-0.4,0.5-0.6c-0.3-0.5-1-1.1-2.2-0.7c-1.3,0.5-2.2,1.1-3.2,1.9
	s-2.2,1.7-4.1,2.4c-2.4,0.9-3.5,0.7-5,0.4c-0.9-0.2-1.9-0.4-3.4-0.4c-3.8,0-8.4,2.9-11.6,7.3c-1.7,2.3-0.9,5.4,0.1,8.1
	c1,2.8,0.5,6.3-0.5,8.4C9.2,50,9.2,51.7,9.7,52c0.9,0.5,1.3,1.4,1.4,2.2c1.8-0.7,3.6-1,4.8-1.3l0.5-0.1c1.8-0.4,3.6,0.5,5.2,1.2
	c0.3,0.1,0.5,0.2,0.8,0.3C22.2,53.2,21.9,50.9,22.1,48.2z"/>
<path class="st0" d="M74.6,59.6c0.7-0.4,1.8-1.1,2.6-1.7c1.6-1,3.3-2.2,4.9-2.9c3.6-1.6,6.8-0.4,7.9,0.7c0.2,0.2,0.4,0.4,0.5,0.6
	l0.1,0.1c1.1-1,2.7-2.8,2.7-4.3c0-1-0.5-2.3-0.9-3.5C92.2,48,92,47.5,91.8,47c-0.2-0.8-0.1-1.8,0.1-3c0.2-1.4,0.4-3.1,0-4.3
	c-0.8-2-2.1-3.2-4.4-3.9c-0.5-0.2-1-0.3-1.4-0.4c-1.7-0.5-3.1-0.9-4.6-2.9c-1.8-2.4-3.2-4-5.1-4.5c-1.2-0.3-3.1,0.1-4.4,0.4
	c0.2,0.6,0.5,1.3,0.9,1.8c0.9,1.2,1.9,2,2.7,2.7c1,0.8,1.8,1.5,2.2,2.5c0.4,1.1,0.1,2.4-0.2,3.8c-0.2,1-0.4,2-0.4,2.8
	s0.2,1.5,0.4,2.1c0.3,0.9,0.5,1.9,0.3,3c-0.4,1.8-1.5,3.5-3.5,5C74.9,54.6,75,57.1,74.6,59.6z"/>
<path class="st1" d="M52.9,48.4c-0.6-1.4-1.3-3.5-1.2-5.2c0-0.1-0.1-0.2-0.1-0.3c0-0.1,0-0.1,0-0.1c-0.1-0.1-0.4-0.2-0.7-0.2
	c-0.7-0.2-1.7-0.4-2.4-1.4c-0.7-0.9-0.9-2-1.1-3.1c-0.2-1-0.4-2.1-0.9-2.4c-0.4-0.3-0.7-0.2-1.3-0.2c-0.8,0.1-1.9,0.2-3-0.8
	c-0.4-0.4-0.9-0.8-1.4-1.1c-0.8-0.6-1.5-1.2-2-1.9c-0.1,0.1-0.3,0.2-0.4,0.3c-0.6,0.4-1.3,0.9-2.7,1.4c-2,0.7-5.7,2.1-8.9,6.9
	c-3.9,5.7-2.7,12.6-2.1,14.8c0.4-0.2,0.8-0.4,1.2-0.7c1-0.6,2.1-1.3,3.3-1.1h0.5c2,0.2,4.3,0.4,5.6,2.3c0.8,1.1,1.3,1.2,2,1.4h0.1
	c0.8,0.2,2.1,0.8,3.6,1.6l0.6,0.3c1.1,0.5,1.2,1.8,1.3,3c0,0.3,0.1,0.9,0.2,1.1c0.1,0,0.2,0,0.2-0.1c0.5-0.2,1.4-0.5,2.7,0
	c1.2,0.4,1.7,1.3,2,2c0.3,0.6,0.4,0.8,0.9,0.9c0.3,0.1,0.6,0.1,1,0c-1.1-1.5-2.7-4.1-2.6-6.4c0-4,1.9-5.6,3.8-7.1
	C53.4,50.4,53.3,49.2,52.9,48.4z M33,44.1c-0.2,0.1-5.6,2.1-5.7,7.8c0,0.5-0.5,1.1-1,1.1c-0.6,0-1-0.6-1-1.2c0.1-7.1,7-9.6,7-9.6
	c0.5-0.2,1.1,0.1,1.3,0.6C33.8,43.3,33.5,43.9,33,44.1z"/>
<path class="st1" d="M62,66.6c0.3-0.3,0.7-1.1,1-1.8c0.9-1.7,1.9-3.7,3.7-4.2c0.7-0.2,1.2-0.2,1.6-0.2c0.1-0.7,0.2-1.3,0.2-1.9
	c-1.2-4.8-5.8-6-5.9-6c-0.5-0.1-0.9-0.7-0.7-1.2c0.1-0.5,0.7-0.9,1.2-0.7c0.2,0,3.2,0.8,5.5,3.5c-0.7-7.3-4.8-10.2-5-10.3
	c-0.5-0.3-0.6-0.9-0.3-1.4s0.9-0.6,1.4-0.3c0.3,0.2,6.8,4.7,5.9,16.3c0,0.2,0,0.3,0,0.4c-0.1,0.6-0.1,1.3-0.3,1.9c0.1,0,0.1,0,0.2,0
	c0.8-0.1,1.1-0.3,1.4-0.5c0.1-0.1,0.2-0.1,0.4-0.2c1.9-7.6-2.1-15.5-5.3-18.9c-1.1-1.1-2.2-2.1-3.2-2.9c-1.4-1.1-2.5-2-3.1-3.2
	c-0.1,0.1-0.2,0.4-0.3,0.8c0,0.2,0,0.4,0,0.6c0,1-0.1,1.8-1.4,3.1c-1,1-2.1,1.4-3.2,1.8c-0.6,0.2-1.2,0.5-1.8,0.8
	c-0.7,0.4-0.4,2.7,0.7,5.2c1.3,3.1-1.5,5.5-2.4,6.2c-2,1.7-3.1,2.7-3.2,5.4c-0.1,2,1.8,4.8,2.9,6c1.2-0.1,2.5-0.2,3.9,0.3
	c1.3,0.4,2,1.4,2.6,2.4c0.1,0,0.1,0,0.2,0C59.3,68.1,61,67.7,62,66.6z"/>
<path class="st0" d="M65.6,76.6c-0.3-0.3-0.5-0.5-0.8-0.8c-0.9-1.2-2-2.5-3.8-2.6c-2-0.1-2.9-1.8-3.7-3.2c-0.6-1.1-1.1-2.1-2.1-2.5
	c-1.4-0.5-2.8-0.3-4.1-0.1c-1,0.2-2,0.3-2.9,0.1c-1.3-0.3-1.8-1.2-2.2-1.9c-0.3-0.6-0.5-0.9-0.9-1c-0.6-0.2-1-0.1-1.4,0
	c-0.5,0.2-1.3,0.4-2.1-0.2c-0.7-0.6-0.8-1.6-0.9-2.6c0-0.5-0.1-1.2-0.2-1.4L40,60.2c-0.9-0.5-2.6-1.3-3.1-1.4h-0.1
	c-0.9-0.2-2-0.4-3.2-2.2c-0.7-1-2.4-1.2-4.1-1.4H29c-0.6,0-1.3,0.4-2,0.8c-1.1,0.7-2.5,1.5-4.1,1c-0.6-0.2-1.3-0.5-1.9-0.8
	c-1.4-0.6-2.8-1.3-4-1.1l-0.5,0.1c-2.1,0.4-6.1,1.2-7.8,3.3C6.3,61.1,6.5,62,7,62.7c0,0.1,0.1,0.1,0.1,0.2c0.1,0,0.2-0.1,0.4-0.1
	c0.6-0.2,1.5-0.5,2.8-0.4c3,0.2,8.9,4.5,11.3,7.7c2.2,2.9,4.7,6,7,6.7c0.4,0.1,0.8,0.3,1.1,0.4c-0.1-0.6-0.1-1.3-0.1-2
	c-0.2-0.8-1.7-8.1-8-12.3c-0.5-0.3-0.6-0.9-0.3-1.4s0.9-0.6,1.4-0.3c4,2.7,6.3,6.4,7.5,9.3c0.2-0.6,0.3-1.2,0.6-1.9
	c1.9-5.1,0-9.4,0-9.5c-0.2-0.5,0-1.1,0.5-1.3s1.1,0,1.3,0.5c0.1,0.2,2.2,5.1,0,11C30.8,74,31.8,78,32,78.8c0.2,0.3,0.3,0.6,0.5,0.9
	c0.6,1.1,2.2,2.1,4.9,1.5c0.4-0.2,2.3-0.9,4.4-0.9c1.2,0,2.6,0.2,3.8,1c3.1,1.9,5.8,3.4,10.1,3.4c4.6,0,8.5-1.4,9.9-2.8
	C66.9,80.6,66.3,77.5,65.6,76.6z M37.6,71.2c0.1-0.1,3.4-2.6,9.5-2.9c0.6,0,1,0.4,1,1s-0.4,1-1,1c-5.5,0.2-8.4,2.4-8.4,2.4
	c-0.2,0.1-0.4,0.2-0.6,0.2c-0.3,0-0.6-0.1-0.8-0.4S37.2,71.5,37.6,71.2z M54.5,77.8c-0.2,0.4-0.5,0.6-0.9,0.6c-0.1,0-0.3,0-0.4-0.1
	c-8.3-3.5-15.5-0.8-15.5-0.8c-0.5,0.2-1.1,0-1.3-0.6c-0.2-0.5,0-1.1,0.6-1.3c0.3-0.1,8-3.1,17,0.8C54.5,76.7,54.7,77.3,54.5,77.8z"
	/>
<path class="st0" d="M94.1,62.8c-0.1-0.3-0.2-0.8-0.3-1.1c-0.4-1.4-0.7-2.6-1.3-2.6l0,0c-0.7,0-1.3-0.1-1.8-0.3s-0.9-0.4-1.2-0.7
	c-0.2-0.2-0.4-0.4-0.6-0.6c-0.1-0.2-0.3-0.2-0.4-0.4c-0.6-0.6-2.9-1.5-5.7-0.3c-1.4,0.6-3.1,1.8-4.6,2.8c-2.3,1.5-3.6,2.3-4.5,2.3
	c-0.2,0-0.3,0-0.4,0l0,0c-0.1,0-0.2,0.1-0.3,0.2c-0.4,0.2-0.9,0.5-2.1,0.7s-1.8,0-2.3-0.2c-0.4-0.1-0.6-0.2-1.4,0
	c-0.9,0.2-1.8,1.8-2.4,3.1c-0.4,0.9-0.9,1.7-1.3,2.2c-0.9,1-2.5,1.8-3.8,2c0.5,0.7,0.9,1.2,1.5,1.2c2.8,0.2,4.3,2.1,5.3,3.4
	c0.2,0.3,0.4,0.5,0.6,0.7c0.4,0.4,0.7,1,0.9,1.7c8.4-2,9.7-9,9.8-9.4c0.1-0.5,0.6-0.9,1.1-0.8s0.9,0.6,0.8,1.1
	c0,0.1-1.5,8.7-11.4,11c0,0.1,0,0.3,0,0.4c0.9,0.1,2.6,0.1,4.7-0.5c3.5-1,6.2-4.4,7.5-6.4c1.6-2.4,4.3-5.6,6-6.8c1.5-1,4.7-1.5,6,0
	c0.1,0,0.1,0,0.4-0.1C93.6,65,94.3,63.4,94.1,62.8z"/>
</svg>
