<?xml version="1.0" encoding="UTF-8"?>
<svg width="61px" height="44px" viewBox="0 0 61 44" version="1.1" xmlns="http://www.w3.org/2000/svg" xmlns:xlink="http://www.w3.org/1999/xlink">
    <!-- Generator: Sketch 49 (51002) - http://www.bohemiancoding.com/sketch -->
    <title>rotate-phone</title>
    <desc>Created with Sketch.</desc>
    <defs></defs>
    <g id="Page-1" stroke="none" stroke-width="1" fill="none" fill-rule="evenodd">
        <g id="rotate" transform="translate(-604.000000, -378.000000)">
            <g id="rotate-phone" transform="translate(604.000000, 379.000000)">
                <g id="Group-2-Copy" transform="translate(39.500000, 29.500000) rotate(90.000000) translate(-39.500000, -29.500000) translate(26.000000, 8.000000)" fill="#FF4343" fill-rule="nonzero">
                    <g id="np_phone_857961_000000">
                        <path d="M20.6015,0.19335 L6.3985,0.19335 C3.1368,0.19335 0.4805,2.8496 0.4805,6.11135 L0.4805,36.88885 C0.4805,40.15055 3.13675,42.80685 6.3985,42.80685 L20.6035,42.80685 C23.8652,42.80685 26.5215,40.1506 26.5215,36.88885 L26.5215,6.11335 C26.5215,2.84775 23.86525,0.19335 20.6015,0.19335 Z M24.15425,36.88685 C24.15425,38.84585 22.5605,40.4396 20.6015,40.4396 L6.3985,40.4396 C4.4395,40.4396 2.84575,38.84585 2.84575,36.88685 L2.84575,6.11335 C2.84575,4.15435 4.4395,2.5606 6.3985,2.5606 L20.6035,2.5606 C22.5625,2.5606 24.15625,4.15435 24.15625,6.11335 L24.15425,36.88685 Z" id="Shape"></path>
                        <path d="M15.867,36.8865 C15.867,40.04275 11.1326,40.04275 11.1326,36.8865 C11.1326,33.7322 15.867,33.7322 15.867,36.8865" id="Shape"></path>
                        <path d="M15.867,3.744 L11.13065,3.744 C10.47635,3.744 9.94705,4.2733 9.94705,4.9276 C9.94705,5.5819 10.47635,6.1112 11.13065,6.1112 L15.867,6.1112 C16.5213,6.1112 17.0506,5.5819 17.0506,4.9276 C17.0506,4.2733 16.5213,3.744 15.867,3.744 Z" id="Shape"></path>
                    </g>
                </g>
                <rect id="Rectangle-6" fill="#FFFFFF" x="3" y="13" width="27" height="30"></rect>
                <g id="Group-2" fill="#FF4343" fill-rule="nonzero">
                    <g id="np_phone_857961_000000">
                        <path d="M15.867,36.8865 C15.867,40.04275 11.1326,40.04275 11.1326,36.8865 C11.1326,33.7322 15.867,33.7322 15.867,36.8865" id="Shape"></path>
                        <path d="M20.6015,0.19335 L6.3985,0.19335 C3.1368,0.19335 0.4805,2.8496 0.4805,6.11135 L0.4805,36.88885 C0.4805,40.15055 3.13675,42.80685 6.3985,42.80685 L20.6035,42.80685 C23.8652,42.80685 26.5215,40.1506 26.5215,36.88885 L26.5215,6.11335 C26.5215,2.84775 23.86525,0.19335 20.6015,0.19335 Z M24.15425,36.88685 C24.15425,38.84585 22.5605,40.4396 20.6015,40.4396 L6.3985,40.4396 C4.4395,40.4396 2.84575,38.84585 2.84575,36.88685 L2.84575,6.11335 C2.84575,4.15435 4.4395,2.5606 6.3985,2.5606 L20.6035,2.5606 C22.5625,2.5606 24.15625,4.15435 24.15625,6.11335 L24.15425,36.88685 Z" id="Shape"></path>
                        <path d="M15.867,3.744 L11.13065,3.744 C10.47635,3.744 9.94705,4.2733 9.94705,4.9276 C9.94705,5.5819 10.47635,6.1112 11.13065,6.1112 L15.867,6.1112 C16.5213,6.1112 17.0506,5.5819 17.0506,4.9276 C17.0506,4.2733 16.5213,3.744 15.867,3.744 Z" id="Shape"></path>
                    </g>
                </g>
                <g id="Group-5" transform="translate(30.000000, 0.000000)">
                    <path d="M0.929992676,0.823729458 C3.22946787,1.03072182 5.22025156,1.84078063 6.90234375,3.25390587 C8.58443594,4.66703111 9.7791257,7.20145215 10.486413,10.857169" id="Path-2" stroke="#FF4343" stroke-width="2" stroke-linecap="round"></path>
                    <path d="M11.2322203,7.56454132 L13.7889725,11.5417114 C14.0876247,12.0062814 13.9531217,12.6249953 13.4885517,12.9236475 C13.3272543,13.0273386 13.1395457,13.082469 12.9477941,13.082469 L7.83428967,13.082469 C7.28200492,13.082469 6.83428967,12.6347537 6.83428967,12.082469 C6.83428967,11.8907174 6.88942005,11.7030087 6.99311119,11.5417114 L9.54986339,7.56454132 C9.84851556,7.09997128 10.4672294,6.96546827 10.9317995,7.26412044 C11.0523021,7.34158643 11.1547543,7.44403867 11.2322203,7.56454132 Z" id="Triangle-3" fill="#FF4343" transform="translate(10.391103, 10.093823) rotate(165.000000) translate(-10.391103, -10.093823) "></path>
                </g>
            </g>
        </g>
    </g>
</svg>