<?xml version="1.0" encoding="utf-8"?>
<!-- Generator: Adobe Illustrator 22.1.0, SVG Export Plug-In . SVG Version: 6.00 Build 0)  -->
<svg version="1.1"
	 id="Laag_1" xmlns:cc="http://creativecommons.org/ns#" xmlns:dc="http://purl.org/dc/elements/1.1/" xmlns:inkscape="http://www.inkscape.org/namespaces/inkscape" xmlns:rdf="http://www.w3.org/1999/02/22-rdf-syntax-ns#" xmlns:sodipodi="http://sodipodi.sourceforge.net/DTD/sodipodi-0.dtd" xmlns:svg="http://www.w3.org/2000/svg"
	 xmlns="http://www.w3.org/2000/svg" xmlns:xlink="http://www.w3.org/1999/xlink" x="0px" y="0px" viewBox="0 0 100 110"
	 style="enable-background:new 0 0 100 110;" xml:space="preserve">
<style type="text/css">
	.st0{fill:#F6AF69;}
	.st1{fill:#44AF69;}
	.st2{fill:#BF211E;}
	.st3{fill:#F9DC5C;}
	.st4{fill:#693D3D;}
</style>
<path class="st0" d="M35.6,10.3c5.5-0.1,11.3,3.1,15.3,9.7c-1,2.3-1.2,4.4-0.9,6.4c0.1,0.6,0.3,1.3,0.4,1.9l-21.1-8.6
	c-0.9-0.3-1.2,0.3-1.6,0.8c-0.6,2.3-1,4.5-1.3,6.5c-1.4-2.6-3.5-4.3-4.9-5.2C23.9,15.2,29.6,10.6,35.6,10.3z"/>
<path class="st1" d="M71.9,17.7c0.4,0.4,1.1,0.4,1.5,0.1c6.1-4.4,13.2-3.8,17.9,0c4.6,3.8,6.9,10.7,2.9,19.6
	c-0.2,0.4-0.1,0.8,0.1,1.1c2.9,3.9,3.6,6.8,3.1,9.6C96.9,51,95,54,92.1,57.9H57.5l6.4-6.7c3.2,0,6.1,0.2,7.9,2
	c0.4,0.4,1.2,0.5,1.7,0c0.4-0.4,0.5-1.2,0-1.7c-2-2-4.7-2.5-7.4-2.6l7.5-7.9c3.7,0,7,0.2,8.9,2c0.4,0.4,1.2,0.5,1.7,0
	c0.4-0.4,0.5-1.2,0-1.7c-2.3-2.3-5.4-2.6-8.4-2.6l7.2-7.6c0.5-0.5,0.3-1.4-0.3-1.8c-0.6-0.4-0.9-0.1-1.5,0.1l-6.6,6.9
	c-0.4-3-1.5-6.1-3.5-8.1c-0.3-0.3-0.7-0.4-1.1-0.4c-0.9,0.2-1.2,1.4-0.6,2c1.7,1.7,2.9,5.5,3.2,8.6L64,47.6
	c-0.3-3.3-1.4-6.8-3.6-9.1c-0.3-0.3-0.7-0.4-1.1-0.4c-0.9,0.2-1.2,1.4-0.6,2c1.9,1.9,3.2,6.4,3.2,9.6l-7.7,8.1h-6.4
	c0.7-1.5,1.1-3.1,1.1-4.9c0-8,2.4-15,5.7-19.5c0.3-0.3,0.3-0.8,0.1-1.2c-1.2-2.3-2-4.3-2.3-6.2c-0.6-5.7,5-10.1,10-11.2
	C65.8,14.4,69.8,15.7,71.9,17.7L71.9,17.7z"/>
<path class="st0" d="M18.7,23.5c3.6,2.1,6,4.7,7.5,7.6c0,4.9,1,9.3,2.4,13.6c-2,2-3.3,4.7-3.5,7.8c-1.5-2.4-4.1-4.1-7.2-4.1
	c-4.6,0-8.3,3.7-8.3,8.3c0,0.4,0,0.8,0.1,1.3H4.7c-2.9-7.4-2.8-14.7-0.1-20.9C7.2,30.5,13.4,25.8,18.7,23.5L18.7,23.5z"/>
<path class="st1" d="M29.2,25.2c1.7,3.4,4.3,7,7.2,10.3c3.6,4.1,7.6,7.6,10.8,9.6c-0.1,0.5-0.2,1-0.3,1.6c-2.1-3.3-5.8-5.5-10-5.5
	c-2.4,0-4.6,0.7-6.4,1.9C28.8,37.6,28,32,29.2,25.2L29.2,25.2z"/>
<path class="st2" d="M30.9,23l8.2,3.4c-0.9,0.1-1.6,0.8-1.6,1.7c0,1,0.8,1.8,1.8,1.8c1,0,1.8-0.8,1.8-1.8c0-0.4-0.1-0.8-0.4-1.1
	l4.8,1.9c-0.5,0.3-0.9,0.9-0.9,1.5c0,1,0.8,1.8,1.8,1.8c1.3-0.2,1.8-1,1.7-2.2l3.5,1.4C52,32,52,32.6,52.1,33
	c-0.4-0.8-1.2-1.3-2.1-1.3c-1.3,0-2.4,1.1-2.4,2.4s1.1,2.4,2.4,2.4c0,0,0.1,0,0.1,0c-0.9,1.9-1.7,4-2.3,6.2c-1-0.7-2.2-1.6-3.4-2.7
	c1.2-0.1,2.1-1.1,2.1-2.3c0-1.3-1.1-2.4-2.4-2.4c-1.3,0-2.3,1-2.4,2.3c-1.2-1.1-2.3-2.3-3.5-3.6C35.5,30.4,32.5,26.8,30.9,23
	L30.9,23z M42.3,30.5c-1,0-1.8,0.8-1.8,1.8c0,1,0.8,1.8,1.8,1.8c1,0,1.8-0.8,1.8-1.8C44.1,31.3,43.3,30.5,42.3,30.5z"/>
<path class="st3" d="M36.9,43.6c5.3,0,9.5,4.2,9.5,9.5c0,2.3-0.6,3.6-1.4,4.9H28.8c-0.9-1.4-1.4-3.1-1.4-4.9
	C27.6,47.2,32.5,43.7,36.9,43.6z"/>
<path class="st1" d="M17.9,50.8c3.3,0,5.9,2.6,5.9,5.9c0,0.4-0.1,0.8-0.1,1.3H12.1C12,57.5,12,57.1,12,56.7
	C12,53.4,14.6,50.8,17.9,50.8z"/>
<path class="st4" d="M0.2,60.3h99.7c-0.1,4.1-0.6,8-1.3,11.8h-97C0.7,68.3,0.2,64.4,0.2,60.3z"/>
<path class="st4" d="M2,74.5h96c-1.9,7.7-5.1,14.7-9.3,20.4c-6.8,9.3-16,15-25.6,15c-8.4,0.1-17.9,0.1-26.2,0
	c-9.6,0-18.8-5.7-25.6-15C7.1,89.2,3.9,82.2,2,74.5L2,74.5z"/>
</svg>
