<svg xmlns:dc="http://purl.org/dc/elements/1.1/" xmlns:cc="http://creativecommons.org/ns#" xmlns:rdf="http://www.w3.org/1999/02/22-rdf-syntax-ns#" xmlns:svg="http://www.w3.org/2000/svg" xmlns="http://www.w3.org/2000/svg" xmlns:sodipodi="http://sodipodi.sourceforge.net/DTD/sodipodi-0.dtd" xmlns:inkscape="http://www.inkscape.org/namespaces/inkscape" version="1.1" x="0px" y="0px" viewBox="0 0 100 125"><g transform="translate(0,-952.36218)"><path style="text-indent:0;text-transform:none;direction:ltr;block-progression:tb;baseline-shift:baseline;color:#000000;enable-background:accumulate;" d="m 10.5938,970.45593 0,2.7188 c 0,0.3936 0.1611,0.7828 0.5624,1.2187 0.4015,0.4359 1.0497,0.9035 1.875,1.2813 1.6508,0.7555 4.0411,1.25 6.6876,1.25 l 60.5624,0 c 2.6465,0 5.037,-0.4945 6.6876,-1.25 0.8253,-0.3778 1.4736,-0.8454 1.875,-1.2813 0.4014,-0.4359 0.5624,-0.8251 0.5624,-1.2187 l 0,-2.7188 -78.8124,0 z m 35.4687,8.0625 0,8.9375 7.8437,0 0,-8.9375 -7.8437,0 z m -14.9687,10.5313 c -5.0628,0 -9.125,4.0377 -9.125,9.0624 l 0,36.15627 56.0624,0 0,-36.15627 c 0,-5.0247 -4.0622,-9.0624 -9.125,-9.0624 l -37.8124,0 z M 50,995.73713 c 4.1043,0 8.2163,1.5475 11.3438,4.65627 6.2548,6.2176 6.2548,16.345 0,22.5625 -6.2549,6.2175 -16.4327,6.2175 -22.6876,0 -6.2551,-6.2175 -6.2236,-16.3449 0.031,-22.5625 3.1274,-3.10877 7.2082,-4.65627 11.3125,-4.65627 z m 0,1.5938 c -3.6897,0 -7.3667,1.4148 -10.1875,4.21877 -5.6413,5.6079 -5.6728,14.6733 -0.031,20.2812 5.6416,5.6082 14.796,5.5768 20.4376,-0.031 5.6415,-5.6079 5.6415,-14.642 0,-20.25 -2.8209,-2.80387 -6.5291,-4.21877 -10.2188,-4.21877 z m -6.375,7.15627 c 0.1143,-0.019 0.2283,-10e-4 0.3438,0 0.4619,0 0.8987,0.1821 1.25,0.5312 l 4.2187,4.1875 c 1.0389,-0.2091 2.1631,0.074 2.9687,0.875 1.2777,1.2701 1.2777,3.3237 0,4.5938 -1.2776,1.27 -3.3473,1.2701 -4.625,0 -0.8059,-0.8009 -1.0853,-1.9361 -0.875,-2.9688 l -4.1874,-4.1562 c -0.7022,-0.6983 -0.7337,-1.8642 -0.031,-2.5625 0.2634,-0.2619 0.5945,-0.4419 0.9375,-0.5 z" fill="#000000" fill-opacity="1" stroke="none" marker="none" visibility="visible" display="inline" overflow="visible"/></g><text x="0" y="115" fill="#000000" font-size="5px" font-weight="bold" font-family="'Helvetica Neue', Helvetica, Arial-Unicode, Arial, Sans-serif">Created by ehab.abdullah</text><text x="0" y="120" fill="#000000" font-size="5px" font-weight="bold" font-family="'Helvetica Neue', Helvetica, Arial-Unicode, Arial, Sans-serif">from the Noun Project</text></svg>